<svg width="18" height="12" viewBox="0 0 18 12" xmlns="http://www.w3.org/2000/svg">
    <path d="M1 12a.968.968 0 0 1-.713-.287A.968.968 0 0 1 0 11c0-.283.096-.52.287-.713A.968.968 0 0 1 1 10h16c.283 0 .52.096.712.287.192.192.288.43.288.713s-.096.52-.288.713A.968.968 0 0 1 17 12H1zm0-5a.968.968 0 0 1-.713-.287A.968.968 0 0 1 0 6c0-.283.096-.52.287-.713A.968.968 0 0 1 1 5h16c.283 0 .52.096.712.287.192.192.288.43.288.713s-.096.52-.288.713A.968.968 0 0 1 17 7H1zm0-5a.968.968 0 0 1-.713-.288A.968.968 0 0 1 0 1C0 .717.096.48.287.287A.968.968 0 0 1 1 0h16c.283 0 .52.096.712.287.192.192.288.43.288.713s-.096.52-.288.712A.968.968 0 0 1 17 2H1z" fill="#FFF" fill-rule="nonzero"/>
</svg>
