<?xml version="1.0" encoding="UTF-8"?>
<svg width="20px" height="20px" viewBox="0 0 20 20" version="1.1" xmlns="http://www.w3.org/2000/svg" xmlns:xlink="http://www.w3.org/1999/xlink">
    <title>Style=Filled, Type=LTR</title>
    <g id="Profile" stroke="none" stroke-width="1" fill="none" fill-rule="evenodd">
        <g id="Profile-/-Talent" transform="translate(-114, -707)" fill="#979797" fill-rule="nonzero">
            <g id="Group-9" transform="translate(104, 611)">
                <g id="Group-15" transform="translate(0, 90)">
                    <g id="Style=Filled,-Type=LTR" transform="translate(12.5, 8.5)">
                        <path d="M15,4.58333333 L15,12.2916667 C15,13.7874379 13.7874379,15 12.2916667,15 L2.70833333,15 C1.21256212,15 0,13.7874379 0,12.2916667 L0,4.58333333 L15,4.58333333 Z M3.54166667,10 C2.96637004,10 2.5,10.4663701 2.5,11.0416667 C2.5,11.6169632 2.96637004,12.0833333 3.54166667,12.0833333 C4.1169633,12.0833333 4.58333333,11.6169632 4.58333333,11.0416667 C4.58333333,10.4663701 4.1169633,10 3.54166667,10 Z M7.5,10 C6.92470342,10 6.45833333,10.4663701 6.45833333,11.0416667 C6.45833333,11.6169632 6.92470342,12.0833333 7.5,12.0833333 C8.07529658,12.0833333 8.54166667,11.6169632 8.54166667,11.0416667 C8.54166667,10.4663701 8.07529658,10 7.5,10 Z M3.54166667,6.25 C2.96637004,6.25 2.5,6.71637009 2.5,7.29166667 C2.5,7.86696325 2.96637004,8.33333333 3.54166667,8.33333333 C4.1169633,8.33333333 4.58333333,7.86696325 4.58333333,7.29166667 C4.58333333,6.71637009 4.1169633,6.25 3.54166667,6.25 Z M7.5,6.25 C6.92470342,6.25 6.45833333,6.71637009 6.45833333,7.29166667 C6.45833333,7.86696325 6.92470342,8.33333333 7.5,8.33333333 C8.07529658,8.33333333 8.54166667,7.86696325 8.54166667,7.29166667 C8.54166667,6.71637009 8.07529658,6.25 7.5,6.25 Z M11.4583333,6.25 C10.8830368,6.25 10.4166667,6.71637009 10.4166667,7.29166667 C10.4166667,7.86696325 10.8830368,8.33333333 11.4583333,8.33333333 C12.0336299,8.33333333 12.5,7.86696325 12.5,7.29166667 C12.5,6.71637009 12.0336299,6.25 11.4583333,6.25 Z M12.2916667,0 C13.7874379,0 15,1.21256212 15,2.70833333 L15,3.33333333 L0,3.33333333 L0,2.70833333 C0,1.21256212 1.21256212,0 2.70833333,0 L12.2916667,0 Z" id="Shape"></path>
                    </g>
                </g>
            </g>
        </g>
    </g>
</svg>