<?xml version="1.0" encoding="UTF-8"?>
<svg width="20px" height="20px" viewBox="0 0 20 20" version="1.1" xmlns="http://www.w3.org/2000/svg" xmlns:xlink="http://www.w3.org/1999/xlink">
    <title>Style=Filled, Type=Default</title>
    <g id="Profile" stroke="none" stroke-width="1" fill="none" fill-rule="evenodd">
        <g id="Profile-/-Talent" transform="translate(-114, -887)" fill="#979797" fill-rule="nonzero">
            <g id="Group-9" transform="translate(104, 611)">
                <g id="Group-15" transform="translate(0, 270)">
                    <g id="Style=Filled,-Type=Default" transform="translate(14.5074, 7.6669)">
                        <path d="M1.96908792,0.365822911 L2.86624829,0.079149995 C3.70692968,-0.189476069 4.60513855,0.244648755 4.96515512,1.0935998 L5.68160613,2.78305451 C5.99381338,3.51926689 5.82056597,4.38502317 5.25328795,4.92346088 L3.67468993,6.42180363 C3.77209158,7.31803606 4.07335028,8.20053329 4.57846562,9.06929572 C5.08358096,9.93805826 5.7144324,10.6587244 6.47102038,11.2312937 L8.36701552,10.5990561 C9.08568487,10.3594089 9.86834486,10.634814 10.3091725,11.2824686 L11.3361398,12.7912664 C11.8485635,13.5441086 11.7564142,14.5827248 11.1205586,15.2210792 L10.4391281,15.90518 C9.76085881,16.5861148 8.79207174,16.8331028 7.8959012,16.5535641 C5.78018844,15.8936185 3.83492708,13.9342779 2.06011613,10.6755431 C0.282723904,7.41206884 -0.344566839,4.64324474 0.178243381,2.36907125 C0.398239953,1.41214361 1.0795026,0.650075426 1.96908792,0.365822911 Z" id="Shape"></path>
                    </g>
                </g>
            </g>
        </g>
    </g>
</svg>