<?xml version="1.0" encoding="UTF-8"?>
<svg width="24px" height="24px" viewBox="0 0 24 24" version="1.1" xmlns="http://www.w3.org/2000/svg" xmlns:xlink="http://www.w3.org/1999/xlink">
    <title>Challenges icon</title>
    <g id="Timeline" stroke="none" stroke-width="1" fill="none" fill-rule="evenodd">
        <g id="Home-Page-/-post-/-more-action" transform="translate(-96, -396)" fill="#979797" fill-rule="nonzero">
            <g id="Group-4" transform="translate(80, 140)">
                <g id="Group-3" transform="translate(0, 244)">
                    <g id="Challenges-icon" transform="translate(21.4, 15)">
                        <path d="M0,0.900000018 C0,0.402943727 0.402943708,1.77635684e-15 0.899999976,1.77635684e-15 L13.5,1.77635684e-15 C13.9970554,1.77635684e-15 14.3999996,0.402943727 14.3999996,0.900000018 L14.3999996,13.5 C14.3999996,13.9970561 13.9970554,14.4000003 13.5,14.4000003 L1.79999995,14.4000003 L1.79999995,17.7000004 C1.79999995,18.1970562 1.39705621,18.6000004 0.899999976,18.6000004 C0.402943708,18.6000004 0,18.1970562 0,17.7000004 L0,0.900000018 Z M1.79999995,12.6000003 L5.39999986,12.6000003 L5.39999986,9 L9,9 L9,12.6000003 L12.5999997,12.6000003 L12.5999997,9 L9,5.40000011 L12.5999997,5.40000011 L12.5999997,1.80000004 L9,1.80000004 L5.39999986,5.40000011 L5.39999986,1.80000004 L1.79999995,1.80000004 L1.79999995,5.40000011 L1.79999995,9 L1.79999995,12.6000003 Z" id="Shape"></path>
                    </g>
                </g>
            </g>
        </g>
    </g>
</svg>