<?xml version="1.0" encoding="UTF-8"?>
<svg width="20px" height="20px" viewBox="0 0 20 20" version="1.1" xmlns="http://www.w3.org/2000/svg" xmlns:xlink="http://www.w3.org/1999/xlink">
    <title>Style=Filled, Type=Closed</title>
    <g id="Settings" stroke="none" stroke-width="1" fill="none" fill-rule="evenodd">
        <g id="Style=Filled,-Type=Closed" transform="translate(3.3333, 1.6667)" fill="#77DCBF" fill-rule="nonzero">
            <path d="M10,3.33333333 L10,4.16666667 L10.625,4.16666667 C12.1207714,4.16666667 13.3333333,5.37922899 13.3333333,6.875 L13.3333333,13.125 C13.3333333,14.6207714 12.1207714,15.8333333 10.625,15.8333333 L2.70833294,15.8333333 C1.21256173,15.8333333 0,14.6207714 0,13.125 L0,6.875 C0,5.37922859 1.21256232,4.16666667 2.70833333,4.16666667 L3.33333333,4.16666667 L3.33333333,3.33333333 C3.33333333,1.49238427 4.82571761,-1.13686838e-13 6.66666667,-1.13686838e-13 C8.50761573,-1.13686838e-13 10,1.49238427 10,3.33333333 Z M4.58333333,3.33333333 L4.58333333,4.16666667 L8.75,4.16666667 L8.75,3.33333333 C8.75,2.18274017 7.81726042,1.25 6.66666667,1.25 C5.5160737,1.25 4.58333333,2.18274017 4.58333333,3.33333333 Z M6.66666667,11.25 C7.35702276,11.25 7.91666667,10.6903561 7.91666667,10 C7.91666667,9.3096439 7.35702276,8.75 6.66666667,8.75 C5.97631057,8.75 5.41666667,9.3096439 5.41666667,10 C5.41666667,10.6903561 5.97631057,11.25 6.66666667,11.25 Z" id="Shape"></path>
        </g>
    </g>
</svg>