<?xml version="1.0" encoding="UTF-8"?>
<svg width="24px" height="24px" viewBox="0 0 24 24" version="1.1" xmlns="http://www.w3.org/2000/svg" xmlns:xlink="http://www.w3.org/1999/xlink">
    <title>Group 4</title>
    <g id="Settings" stroke="none" stroke-width="1" fill="none" fill-rule="evenodd">
        <g id="My-Account-/-Talent" transform="translate(-96, -214)">
            <g id="Group-7" transform="translate(80, 197)">
                <g id="Group-4" transform="translate(16, 17)">
                    <rect id="Rectangle" x="0" y="0" width="24" height="24"></rect>
                    <g id="Style=Outlined,-Type=Closed" transform="translate(4, 2)" fill="#979797" fill-rule="nonzero">
                        <path d="M8,13.5 C8.82842731,13.5 9.5,12.8284273 9.5,12 C9.5,11.1715727 8.82842731,10.5 8,10.5 C7.17157269,10.5 6.5,11.1715727 6.5,12 C6.5,12.8284273 7.17157269,13.5 8,13.5 Z M4,4 C4,1.79086113 5.79086113,0 8,0 C10.2091389,0 12,1.79086113 12,4 L12,5 L12.75,5 C14.5449257,5 16,6.45507479 16,8.25 L16,15.75 C16,17.5449257 14.5449257,19 12.75,19 L3.24999952,19 C1.45507407,19 0,17.5449257 0,15.75 L0,8.25 C0,6.45507431 1.45507479,5 3.25,5 L4,5 L4,4 Z M8,1.5 C6.61928844,1.5 5.5,2.61928821 5.5,4 L5.5,5 L10.5,5 L10.5,4 C10.5,2.61928821 9.38071251,1.5 8,1.5 Z M3.25,6.5 C2.28350163,6.5 1.5,7.28350163 1.5,8.25 L1.5,15.75 C1.5,16.7164993 2.28350163,17.5 3.24999952,17.5 L12.75,17.5 C13.7164984,17.5 14.5,16.7164993 14.5,15.75 L14.5,8.25 C14.5,7.28350163 13.7164984,6.5 12.75,6.5 L3.25,6.5 Z" id="Shape"></path>
                    </g>
                </g>
            </g>
        </g>
    </g>
</svg>