<svg width="20" height="20" viewBox="0 0 20 20" xmlns="http://www.w3.org/2000/svg">
    <path d="M8.197 1.695c.093.032.185.07.274.114l1.069.526c.29.143.63.143.92 0l1.07-.526a2.292 2.292 0 0 1 3.067 1.043l.062.136.052.139.384 1.128c.104.306.344.546.65.65l1.128.384a2.292 2.292 0 0 1 1.318 3.182l-.526 1.069c-.143.29-.143.63 0 .92l.526 1.07a2.292 2.292 0 0 1-1.318 3.18l-1.128.385a1.042 1.042 0 0 0-.65.65l-.384 1.128a2.292 2.292 0 0 1-3.182 1.318l-1.069-.526a1.042 1.042 0 0 0-.92 0l-1.07.526a2.292 2.292 0 0 1-3.18-1.318l-.385-1.128a1.042 1.042 0 0 0-.65-.65l-1.128-.384a2.292 2.292 0 0 1-1.318-3.182l.526-1.069c.143-.29.143-.63 0-.92l-.526-1.07a2.292 2.292 0 0 1 1.318-3.18l1.128-.385c.306-.104.546-.344.65-.65l.384-1.128a2.292 2.292 0 0 1 2.908-1.432zm4.694 5.78L8.375 11.99 6.73 10.017a.625.625 0 0 0-.96.8l2.083 2.5a.625.625 0 0 0 .922.042l5-5a.625.625 0 1 0-.884-.884z" fill="#77DCBF" fill-rule="nonzero"/>
</svg>
