<?xml version="1.0" encoding="UTF-8"?>
<svg width="24px" height="24px" viewBox="0 0 24 24" version="1.1" xmlns="http://www.w3.org/2000/svg" xmlns:xlink="http://www.w3.org/1999/xlink">
    <title>Football icon</title>
    <g id="Timeline" stroke="none" stroke-width="1" fill="none" fill-rule="evenodd">
        <g id="Home-Page-/-post-/-more-action" transform="translate(-96, -213)">
            <g id="Group-4" transform="translate(80, 140)">
                <g id="Group-3" transform="translate(0, 61)">
                    <g id="Football-icon" transform="translate(16, 12)">
                        <path d="M24,0 L24,24 L0,24 L0,0 L24,0 Z" id="Vector"></path>
                        <g id="Group" transform="translate(2.75, 2.75)" fill-rule="nonzero" stroke-dasharray="0,0" stroke-linecap="round" stroke-linejoin="round" stroke-width="1.5">
                            <path d="M15.7900009,15.7900038 C14.7800009,16.8100038 13.5799987,17.5500029 12.2799988,18.0000029 L9.25,16.1400023 L9.25,12.8600025 L12.6800003,10.3700027 L15.8000031,11.4000025 L16.6200027,14.840003 C16.3700027,15.170003 16.1000009,15.4900038 15.7900009,15.7900038 Z" id="Vector" stroke="#000000"></path>
                            <path d="M9.25000763,16.1400023 L6.24000549,18.0000029 C4.92000544,17.5600029 3.7200067,16.8100038 2.71000671,15.7900038 C2.40000671,15.4900038 2.13000488,15.170003 1.88000488,14.840003 L2.69001007,11.380003 L5.81000519,10.3700027 L9.25000763,12.8600025 L9.25000763,16.1400023 Z" id="Vector" stroke="#979797"></path>
                            <path d="M5.80999756,10.3700037 L2.69000244,11.3800039 L0,9.05000401 C0.0399999991,7.19000399 0.630002499,5.42000365 1.69000244,3.93000364 L5.23000336,3.66000366 L7.12000275,6.33000374 L5.80999756,10.3700037 Z" id="Vector" stroke="#979797"></path>
                            <path d="M15.8099976,11.4000001 L12.6900024,10.3700004 L11.3799973,6.3300004 L13.3099976,3.68000031 L16.8199997,3.94000053 C17.8799973,5.44000053 18.46,7.20000017 18.5,9.07000017 L15.8099976,11.4000001 Z" id="Vector" stroke="#000000"></path>
                            <g transform="translate(0, 0.39)" id="Vector" stroke="#979797">
                                <path d="M1.87999725,14.4500017 C0.659997225,12.8600017 0,10.9100015 0,8.86000156 L0,8.65000153 L2.69000244,10.9900017 L1.87999725,14.4500017 Z"></path>
                                <path d="M5.21999359,3.26999974 L1.67999268,3.53999972 C1.97999269,3.10999972 2.32999146,2.70999968 2.70999146,2.32999969 C3.79999149,1.21999967 5.11999202,0.439999998 6.56999207,0 L5.21999359,3.26999974 Z"></path>
                            </g>
                            <path d="M15.7900009,15.7900038 C14.7800009,16.8100038 13.5799987,17.5500029 12.2799988,18.0000029 L9.25,16.1400023 L9.25,12.8600025 L12.6800003,10.3700027 L15.8000031,11.4000025 L16.6200027,14.840003 C16.3700027,15.170003 16.1000009,15.4900038 15.7900009,15.7900038 Z" id="Vector" stroke="#979797"></path>
                            <path d="M15.8099976,11.4000001 L12.6900024,10.3700004 L11.3799973,6.3300004 L13.3099976,3.68000031 L16.8199997,3.94000053 C17.8799973,5.44000053 18.46,7.20000017 18.5,9.07000017 L15.8099976,11.4000001 Z" id="Vector" stroke="#979797"></path>
                            <path d="M13.3099976,3.67999911 L11.9400024,0.38999939 C13.3800025,0.829999387 14.6899987,1.6099993 15.7799988,2.70999932 C16.1799988,3.08999932 16.5199997,3.49999934 16.8199997,3.93999934 L13.3099976,3.67999911 Z" id="Vector" stroke="#979797"></path>
                            <path d="M18.5,9.25 C18.5,11.3 17.8400028,13.2400001 16.6200027,14.8400002 L15.8099976,11.3999996 L18.5,9.06999969 L18.5,9.25 Z" id="Vector" stroke="#979797"></path>
                            <path d="M9.24999237,18.5 C8.20999241,18.5 7.18999022,18.33 6.23999023,18 L9.24999237,16.1399994 L12.269989,18 C11.299989,18.33 10.2899923,18.5 9.24999237,18.5 Z" id="Vector" stroke="#979797"></path>
                            <path d="M11.3799973,6.32999992 L7.12000275,6.32999992 L5.22000122,3.65999985 L6.56999969,0.390000105 C7.41999972,0.130000114 8.32999998,0 9.25,0 C10.17,0 11.0800024,0.130000114 11.9400024,0.390000105 L13.3099976,3.67999983 L11.3799973,6.32999992 Z" id="Vector" stroke="#979797"></path>
                            <path d="M9.25000763,12.8600016 L5.82000732,10.3700018 L7.12001038,6.33000183 L11.3800049,6.33000183 L12.6800079,10.3700018 L9.25000763,12.8600016 Z" id="Vector" stroke="#979797"></path>
                        </g>
                    </g>
                </g>
            </g>
        </g>
    </g>
</svg>