<?xml version="1.0" encoding="UTF-8"?>
<svg width="24px" height="24px" viewBox="0 0 24 24" version="1.1" xmlns="http://www.w3.org/2000/svg" xmlns:xlink="http://www.w3.org/1999/xlink">
    <title>Style=Filled, Type=Ribbon</title>
    <g id="Search-Pages" stroke="none" stroke-width="1" fill="none" fill-rule="evenodd">
        <g id="Style=Filled,-Type=Ribbon" transform="translate(3.6, 2.4)" fill="#77DCBF" fill-rule="nonzero">
            <path d="M8.40000033,0 C5.74903358,0 3.60000014,2.14903332 3.60000014,4.79999991 C3.60000014,7.4509665 5.74903358,9.59999982 8.40000033,9.59999982 C11.0509671,9.59999982 13.2000005,7.4509665 13.2000005,4.79999991 C13.2000005,2.14903332 11.0509671,0 8.40000033,0 Z M2.41047201,10.7999998 C1.083781,10.7999987 0,11.8642454 0,13.2000066 C0,15.2294377 0.99937195,16.7595654 2.56199294,17.7559098 C4.10036103,18.7367897 6.17430979,19.2000042 8.40000033,19.2000042 C9.67367058,19.2000042 10.8976483,19.0483116 12,18.7347206 L12,16.3740929 C11.2531682,15.5279752 10.8000004,14.4165319 10.8000004,13.1992261 C10.8000004,12.3252454 11.0335961,11.5058336 11.4417565,10.8000055 L2.41047201,10.7999998 Z M15.6000006,16.7990384 C17.5882263,16.7990384 19.2000008,15.1873487 19.2000008,13.1992261 C19.2000008,11.2111048 17.5882263,9.59941388 15.6000006,9.59941388 C13.611775,9.59941388 12,11.2111048 12,13.1992261 C12,15.1873487 13.611775,16.7990384 15.6000006,16.7990384 Z M15.6000006,17.9989789 C16.4742904,17.9989789 17.2939849,17.7652436 18,17.3568577 L18,20.0992832 C18,20.3319668 17.7465747,20.4760593 17.5466007,20.357082 L15.6000006,19.1989147 L13.6533994,20.357082 C13.4534254,20.4760616 13.2000005,20.3319645 13.2000005,20.0992809 L13.2000005,17.3568577 C13.9060163,17.7652436 14.7257109,17.9989789 15.6000006,17.9989789 Z" id="Shape"></path>
        </g>
    </g>
</svg>