<svg width="24" height="24" viewBox="0 0 24 24" xmlns="http://www.w3.org/2000/svg">
    <g fill="none" fill-rule="evenodd">
        <path d="M0 0h24v24H0z"/>
        <path d="M11.023 16.57 4.28 9.627a.925.925 0 0 1-.28-.67c.001-.256.086-.48.257-.67A.86.86 0 0 1 4.93 8h14.14a.86.86 0 0 1 .674.287c.17.192.256.415.256.67 0 .064-.093.288-.28.67l-6.743 6.942c-.155.16-.31.271-.465.335A1.331 1.331 0 0 1 12 17c-.186 0-.357-.032-.512-.096a1.417 1.417 0 0 1-.465-.335z" fill="#FFF" fill-rule="nonzero"/>
    </g>
</svg>
