<?xml version="1.0" encoding="UTF-8"?>
<svg width="24px" height="24px" viewBox="0 0 24 24" version="1.1" xmlns="http://www.w3.org/2000/svg" xmlns:xlink="http://www.w3.org/1999/xlink">
    <title>Style=Filled, Type=Circle</title>
    <g id="Profile" stroke="none" stroke-width="1" fill="none" fill-rule="evenodd">
        <g id="Profile-/-Talent-/-Followers-list-Copy" transform="translate(-834, -379)" fill="#5FB099" fill-rule="nonzero">
            <g id="Group-21" transform="translate(386.5, 169)">
                <g id="Group-19" transform="translate(0.5, 198)">
                    <g id="Group-9" transform="translate(435, 8)">
                        <g id="Style=Filled,-Type=Circle" transform="translate(14, 6)">
                            <path d="M10,0 C15.5228477,0 20,4.47715235 20,10 C20,15.5228477 15.5228477,20 10,20 C4.47715235,20 0,15.5228477 0,10 C0,4.47715235 4.47715235,0 10,0 Z M13.2196703,6.9696703 L8.75,11.4393396 L6.7803297,9.4696703 C6.48743647,9.17677709 6.01256305,9.17677709 5.71966982,9.4696703 C5.42677662,9.7625635 5.42677662,10.2374365 5.71966982,10.5303297 L8.2196703,13.0303297 C8.5125635,13.3232229 8.9874365,13.3232229 9.2803297,13.0303297 L14.2803307,8.0303297 C14.5732239,7.73743647 14.5732239,7.26256353 14.2803307,6.9696703 C13.9874375,6.67677709 13.5125635,6.67677709 13.2196703,6.9696703 Z" id="Shape"></path>
                        </g>
                    </g>
                </g>
            </g>
        </g>
    </g>
</svg>