<?xml version="1.0" encoding="UTF-8"?>
<svg width="236px" height="121px" viewBox="0 0 236 121" version="1.1" xmlns="http://www.w3.org/2000/svg" xmlns:xlink="http://www.w3.org/1999/xlink">
    <title>Asset 1</title>
    <defs>
        <linearGradient x1="50%" y1="0%" x2="50%" y2="99.9018646%" id="linearGradient-1">
            <stop stop-color="#006837" offset="0%"></stop>
            <stop stop-color="#009245" offset="100%"></stop>
        </linearGradient>
        <radialGradient cx="50.1265823%" cy="2221.31387%" fx="50.1265823%" fy="2221.31387%" r="111.017363%" gradientTransform="translate(0.5013, 22.2131), scale(0.3683, 1), translate(-0.5013, -22.2131)" id="radialGradient-2">
            <stop stop-color="#000000" offset="0%"></stop>
            <stop stop-color="#FFFFFF" offset="100%"></stop>
        </radialGradient>
        <linearGradient x1="-7.93016446e-14%" y1="49.9332443%" x2="100%" y2="49.9332443%" id="linearGradient-3">
            <stop stop-color="#4D4D4D" offset="0%"></stop>
            <stop stop-color="#333333" offset="100%"></stop>
        </linearGradient>
        <radialGradient cx="41.1184211%" cy="26.3157895%" fx="41.1184211%" fy="26.3157895%" r="88.1578947%" gradientTransform="translate(0.4112, 0.2632), scale(1, 0.9418), translate(-0.4112, -0.2632)" id="radialGradient-4">
            <stop stop-color="#F2F2F2" offset="0%"></stop>
            <stop stop-color="#CCCCCC" offset="100%"></stop>
        </radialGradient>
    </defs>
    <g id="Profile" stroke="none" stroke-width="1" fill="none" fill-rule="evenodd">
        <g id="Profile-/-Talent" transform="translate(-148, -464)">
            <g id="Asset-1" transform="translate(148, 464)">
                <g id="Group">
                    <g id="Path">
                        <g fill-rule="nonzero">
                            <polygon fill="#00A100" points="231.941286 91.1400107 236 107.86212 0 107.86212 4.04578815 91.1400107"></polygon>
                            <polygon fill="#16B216" points="228.166941 75.5266915 231.941286 91.1400107 4.04578815 91.1400107 7.83305948 75.5266915"></polygon>
                            <polygon fill="#00A100" points="224.62526 60.9190197 228.166941 75.5266915 7.83305948 75.5266915 11.361814 60.9190197"></polygon>
                            <polygon fill="#16B216" points="224.62526 60.9190197 11.361814 60.9190197 14.6837551 47.2138519 221.316245 47.2138519"></polygon>
                            <polygon fill="#00A100" points="218.201117 34.3467235 221.316245 47.2138519 14.6837551 47.2138519 17.7988827 34.3467235"></polygon>
                            <polygon fill="#16B216" points="215.266951 22.2273841 218.201117 34.3467235 17.7988827 34.3467235 20.7330485 22.2273841"></polygon>
                            <polygon fill="#00A100" points="212.500822 10.7913692 215.266951 22.2273841 20.7330485 22.2273841 23.4991784 10.7913692"></polygon>
                            <polygon fill="#16B216" points="209.876876 0 212.500822 10.7913692 23.4991784 10.7913692 26.1101983 0"></polygon>
                        </g>
                        <g transform="translate(118, 1.4698)" stroke="#FFFFFF" stroke-width="0.645141856">
                            <g>
                                <polygon points="89.0978201 0 113.424252 103.981353 0 103.981353 0 0"></polygon>
                                <polygon points="86.6806879 31.6134257 92.8333881 60.880341 103.342097 60.880341 96.5043269 31.6134257"></polygon>
                                <path d="M0,31.6134257 C9.99167488,31.6134257 18.3546938,37.8278103 18.7036915,45.7440597 C19.0656151,53.9697389 10.6896703,60.880341 0,60.880341"></path>
                                <polygon points="63.1168803 16.4126798 92.9367948 16.4126798 107.762734 79.7684603 73.1861102 79.7684603"></polygon>
                                <path d="M65.9347136,34.1533298 L69.7219849,58.018114 C64.3965385,55.2461375 60.5834155,50.7336175 59.8854201,45.7569526 C59.2003505,40.883431 61.6691861,36.6674481 65.9347136,34.1533298 Z"></path>
                            </g>
                            <path d="M89.5760762,2.01129462 C87.9861978,2.01129462 86.4868003,1.10879062 86.2412093,0"></path>
                            <path d="M112.674554,100.771018 C110.671048,100.771018 109.378464,102.202131 109.779165,103.994246"></path>
                        </g>
                        <g transform="translate(4.5757, 1.4698)" stroke="#FFFFFF" stroke-width="0.645141856">
                            <g>
                                <polygon points="24.3135064 0 0 103.981353 113.424252 103.981353 113.424252 0"></polygon>
                                <polygon points="26.7435645 31.6134257 20.5908643 60.880341 10.0821558 60.880341 16.9199255 31.6134257"></polygon>
                                <path d="M113.424252,31.6134257 C103.432578,31.6134257 95.0695585,37.8278103 94.7205609,45.7440597 C94.3586373,53.9697389 102.734582,60.880341 113.424252,60.880341"></path>
                                <polygon points="50.2944463 16.4126798 20.4874576 16.4126798 5.66151824 79.7684603 40.2381422 79.7684603"></polygon>
                                <path d="M47.476613,34.1533298 L43.6893417,58.018114 C49.014788,55.2461375 52.8279111,50.7336175 53.5259065,45.7569526 C54.210976,40.883431 51.7421404,36.6674481 47.476613,34.1533298 Z"></path>
                            </g>
                            <path d="M23.8481761,2.01129462 C25.4380546,2.01129462 26.9374521,1.10879062 27.183043,0"></path>
                            <path d="M0.749698762,100.771018 C2.75320407,100.771018 4.04578815,102.202131 3.64508709,103.994246"></path>
                        </g>
                    </g>
                    <rect id="Rectangle" fill="url(#linearGradient-1)" fill-rule="nonzero" x="0" y="107.86212" width="236" height="13.1378796"></rect>
                </g>
                <g id="Group" transform="translate(28.8847, 34.8109)" fill-rule="nonzero">
                    <g id="Path">
                        <path d="M25.2727988,19.9060419 C25.2727988,22.4877129 19.6104122,24.5598436 12.6363994,24.5598436 C5.66238656,24.5598436 0,22.4537436 0,19.9060419 C0,17.3583403 5.66238656,15.2522403 12.6363994,15.2522403 C19.6104122,15.2522403 25.2727988,17.3583403 25.2727988,19.9060419 Z" fill="url(#radialGradient-2)" style="mix-blend-mode: multiply;"></path>
                        <path d="M19.8343484,19.5663484 C15.0677066,22.0800806 10.3010648,22.0800806 5.50243214,19.5663484 L5.50243214,16.3392597 C5.50243214,12.1270597 8.70152059,8.73012419 12.6683903,8.73012419 C16.63526,8.73012419 19.8343484,12.1270597 19.8343484,16.3392597 L19.8343484,19.5663484 Z" fill="url(#linearGradient-3)"></path>
                        <path d="M17.5310047,5.16334194 C17.5310047,8.01676774 15.3556246,10.3266839 12.6683903,10.3266839 C9.98115597,10.3266839 7.80577583,8.01676774 7.80577583,5.16334194 C7.80577583,2.30991613 9.98115597,0 12.6683903,0 C15.3556246,0 17.5310047,2.30991613 17.5310047,5.16334194 Z" fill="url(#radialGradient-4)"></path>
                    </g>
                </g>
            </g>
        </g>
    </g>
</svg>