<?xml version="1.0" encoding="UTF-8"?>
<svg width="20px" height="20px" viewBox="0 0 20 20" version="1.1" xmlns="http://www.w3.org/2000/svg" xmlns:xlink="http://www.w3.org/1999/xlink">
    <title>Style=Filled, Type=Heart</title>
    <g id="Profile" stroke="none" stroke-width="1" fill="none" fill-rule="evenodd">
        <g id="Profile-/-Talent" transform="translate(-114, -617)" fill="#979797" fill-rule="nonzero">
            <g id="Group-9" transform="translate(104, 611)">
                <g id="Style=Filled,-Type=Heart" transform="translate(11.6699, 7.6699)">
                    <path d="M7.82850742,14.2254019 C6.68461084,13.0815045 6.44087116,11.3783209 7.09728877,9.9960804 L1.87406381,9.9960804 C0.839047035,9.9960804 0,10.8351278 0,11.870145 L0,12.6367911 C0,13.1135138 0.148671096,13.5783704 0.425306559,13.9666208 C1.71044012,15.7702414 3.81290873,16.6637055 6.66371544,16.6637055 C7.84099261,16.6637055 8.89088551,16.5113417 9.80855385,16.2054459 L7.82850742,14.2254019 Z M6.66371544,-8.8817842e-16 C8.96490177,-8.8817842e-16 10.8303817,1.86548014 10.8303817,4.16666667 C10.8303817,6.46785339 8.96490177,8.33333333 6.66371544,8.33333333 C4.36252912,8.33333333 2.49704878,6.46785339 2.49704878,4.16666667 C2.49704878,1.86548014 4.36252912,-8.8817842e-16 6.66371544,-8.8817842e-16 Z M12.5333309,17.4927823 C12.3733377,17.4927823 12.2133644,17.4317455 12.0913418,17.3097229 L8.41776371,13.6361472 C7.28956461,12.5079473 7.2895654,10.6787753 8.4177645,9.55057621 C9.54596361,8.4223779 11.3751356,8.42237711 12.5033347,9.55057621 L12.5333309,9.58057245 L12.5633272,9.55057621 C13.691527,8.42237711 15.5206998,8.4223779 16.6488981,9.55057621 C17.7770964,10.6787753 17.7770964,12.5079473 16.6488981,13.6361472 L12.9753208,17.3097229 C12.8532982,17.4317455 12.6933249,17.4927823 12.5333309,17.4927823 Z" id="Shape"></path>
                </g>
            </g>
        </g>
    </g>
</svg>