<?xml version="1.0" encoding="UTF-8"?>
<svg width="20px" height="20px" viewBox="0 0 20 20" version="1.1" xmlns="http://www.w3.org/2000/svg" xmlns:xlink="http://www.w3.org/1999/xlink">
    <title>Group 7</title>
    <g id="Profile" stroke="none" stroke-width="1" fill="none" fill-rule="evenodd">
        <g id="Profile-/-Talent" transform="translate(-114, -752)">
            <g id="Group-9" transform="translate(104, 611)">
                <g id="Group-15" transform="translate(0, 135)">
                    <g id="Group-7" transform="translate(10, 6)">
                        <rect id="Rectangle" x="0" y="0" width="20" height="20"></rect>
                        <g id="Group-13" transform="translate(1, 2)" fill="#979797" fill-rule="nonzero">
                            <g id="Style=Outlined,-Type=Default" transform="translate(2.3356, 7.941) rotate(90) translate(-2.3356, -7.941)translate(-3.7369, 5.6054)">
                                <path d="M2.47545739,0.136814935 C2.64484734,0.31923482 2.64484734,0.614995947 2.47545739,0.797415832 L1.48091502,1.86846146 L4.77124982,1.86846146 C5.01080351,1.86846146 5.2049998,2.07759614 5.2049998,2.33557682 C5.2049998,2.5935575 5.01080351,2.80269218 4.77124982,2.80269218 L1.48091502,2.80269218 L2.47545739,3.87373792 C2.64484734,4.05615764 2.64484734,4.3519189 2.47545739,4.53433862 C2.30606765,4.71675879 2.0314324,4.71675879 1.86204245,4.53433862 L0.12704244,2.66587717 C-0.0423474801,2.48345745 -0.0423474801,2.18769641 0.12704244,2.00527647 L1.86204245,0.136814935 C2.0314324,-0.0456049782 2.30606765,-0.0456049782 2.47545739,0.136814935 Z M9.66954173,0.136814935 C9.8389323,-0.0456049782 10.1135669,-0.0456049782 10.2829575,0.136814935 L12.0179574,2.00527647 C12.1873472,2.18769641 12.1873472,2.48345745 12.0179574,2.66587717 L10.2829575,4.53433862 C10.1135669,4.71675879 9.8389323,4.71675879 9.66954173,4.53433862 C9.50015199,4.3519189 9.50015199,4.05615764 9.66954173,3.87373792 L10.6640838,2.80269218 L7.37374972,2.80269218 C7.13419602,2.80269218 6.93999973,2.5935575 6.93999973,2.33557682 C6.93999973,2.07759614 7.13419602,1.86846146 7.37374972,1.86846146 L10.6640838,1.86846146 L9.66954173,0.797415832 C9.50015199,0.614995947 9.50015199,0.31923482 9.66954173,0.136814935 Z" id="Shape"></path>
                            </g>
                            <g id="Style=Filled,-Checkmark=Off" transform="translate(4.9058, 0)">
                                <path d="M7.00680339,3.57342713 C7.97451654,3.57342713 8.75900331,2.77348826 8.75900331,1.78671357 C8.75900331,0.799938874 7.97451654,0 7.00680339,0 C6.03909024,0 5.25460346,0.799938874 5.25460346,1.78671357 C5.25460346,2.77348826 6.03909024,3.57342713 7.00680339,3.57342713 Z M2.45091395,1.72955878 C1.56068712,1.34423653 0.529049464,1.76479026 0.144673183,2.66971038 C-0.241028827,3.57775136 0.171119221,4.6289917 1.06441508,5.01564246 L3.41913881,6.03485094 C3.70680146,6.15936145 3.89360977,6.44715853 3.89360977,6.76581932 L3.89360977,9.17950963 L2.43034248,13.5128529 C2.11528555,14.4458668 2.60162936,15.4626572 3.51662027,15.7839179 C4.43160951,16.1051785 5.42876098,15.6092599 5.7438181,14.6762444 L6.82271922,11.4811699 C6.88300175,11.3026489 7.13060057,11.3026489 7.1908831,11.4811699 L8.2698429,14.6764201 C8.58490001,15.6094341 9.58205074,16.1053557 10.4970411,15.7840936 C11.4120314,15.4628329 11.8983756,14.4460425 11.5833185,13.513027 L10.1236532,9.17973758 L10.1236532,6.76417293 C10.1236532,6.44551215 10.3104623,6.15771506 10.5981249,6.03320455 L12.949046,5.01564246 C13.8423435,4.62899208 14.2544903,3.57775136 13.8687873,2.66971 C13.4844107,1.76479064 12.4527737,1.34423653 11.5625465,1.72955878 L10.3118674,2.27089744 C10.0465468,2.3857377 9.86147485,2.60666714 9.77080041,2.85133005 C9.34868387,3.99031681 8.26957182,4.7986779 7.00676625,4.7986779 C5.74397072,4.7986779 4.66486647,3.99033007 4.24274175,2.85135731 C4.15206657,2.60669857 3.96699576,2.3857731 3.70167809,2.27093417 L2.45091395,1.72955878 Z" id="Shape"></path>
                            </g>
                        </g>
                    </g>
                </g>
            </g>
        </g>
    </g>
</svg>