<?xml version="1.0" encoding="UTF-8"?>
<svg width="24px" height="24px" viewBox="0 0 24 24" version="1.1" xmlns="http://www.w3.org/2000/svg" xmlns:xlink="http://www.w3.org/1999/xlink">
    <title>Style=Outlined, Type=Default</title>
    <g id="Opportunities" stroke="none" stroke-width="1" fill="none" fill-rule="evenodd">
        <g id="Opportunities-/-Talent" transform="translate(-96, -152)" fill="#979797" fill-rule="nonzero">
            <g id="Group-4" transform="translate(80, 140)">
                <g id="Style=Outlined,-Type=Default" transform="translate(19, 14.002)">
                    <path d="M7.5495162,0.529941842 C8.38742733,-0.176647857 9.61257267,-0.176646963 10.4504824,0.529942617 L17.2004795,6.22205161 C17.7074451,6.64956377 18,7.27894925 18,7.94210909 L18,17.2519531 C18,18.2184505 17.2164917,19.0019531 16.2499943,19.0019531 L12.7499943,19.0019531 C11.7834969,19.0019531 11,18.2184524 11,17.2519531 L11,12.2448816 C11,12.1068106 10.8880644,11.9948816 10.7499933,11.9948816 L7.24999428,11.9948816 C7.11192274,11.9948816 7,12.1068106 7,12.2448807 L7,17.2519531 C7,18.2184505 6.21649504,19.0019531 5.24999571,19.0019531 L1.75,19.0019531 C0.783502042,19.0019531 0,18.2184524 0,17.2519531 L0,7.94210957 C0,7.27894972 0.292550921,6.64956377 0.799517035,6.22205161 L7.5495162,0.529941842 Z M9.4834938,1.67664765 C9.20419025,1.44111751 8.79580784,1.44111751 8.51650429,1.67664717 L1.7665056,7.36875676 C1.59751689,7.51126097 1.5,7.72105597 1.5,7.94210957 L1.5,17.2519531 C1.5,17.3900242 1.61192846,17.5019531 1.75,17.5019531 L5.24999571,17.5019531 C5.38806581,17.5019531 5.5,17.3900261 5.5,17.2519531 L5.5,12.2448807 C5.5,11.2783823 6.28349638,10.4948816 7.24999428,10.4948816 L10.7499933,10.4948816 C11.7164917,10.4948816 12.5,11.2783832 12.5,12.2448816 L12.5,17.2519531 C12.5,17.3900242 12.6119223,17.5019531 12.7499943,17.5019531 L16.2499943,17.5019531 C16.3880653,17.5019531 16.5,17.3900242 16.5,17.2519531 L16.5,7.94210909 C16.5,7.72105597 16.4024801,7.51126097 16.2334919,7.36875676 L9.4834938,1.67664765 Z" id="Shape"></path>
                </g>
            </g>
        </g>
    </g>
</svg>