<?xml version="1.0" encoding="UTF-8"?>
<svg width="24px" height="24px" viewBox="0 0 24 24" version="1.1" xmlns="http://www.w3.org/2000/svg" xmlns:xlink="http://www.w3.org/1999/xlink">
    <title>Home filled / icon</title>
    <g id="Search-Pages" stroke="none" stroke-width="1" fill="none" fill-rule="evenodd">
        <g id="Home-filled-/-icon" transform="translate(3, 2.0029)" fill="#77DCBF" fill-rule="nonzero">
            <path d="M10.4508448,0.53024739 C9.61280918,-0.17674917 8.38718987,-0.176748991 7.54915524,0.530247152 L0.799155116,6.2247858 C0.292405248,6.6522975 0,7.28154373 0,7.94453812 L0,17.2496834 C0,18.2161808 0.783501506,18.9996834 1.75,18.9996834 L4.75,18.9996834 C5.71649837,18.9996834 6.5,18.2161808 6.5,17.2496834 L6.5,13.2470703 C6.5,12.5677862 7.04183674,12.0150557 7.71688604,11.9975004 L10.2831144,11.9975004 C10.9581633,12.0150557 11.5,12.5677862 11.5,13.2470703 L11.5,17.2496834 C11.5,18.2161808 12.2835007,18.9996834 13.25,18.9996834 L16.2499962,18.9996834 C17.2164955,18.9996834 18,18.2161789 18,17.2496834 L18,7.94453812 C18,7.28154373 17.7075882,6.6522975 17.20084,6.2247858 L10.4508448,0.53024739 Z" id="Shape"></path>
        </g>
    </g>
</svg>