<?xml version="1.0" encoding="UTF-8"?>
<svg width="24px" height="24px" viewBox="0 0 24 24" version="1.1" xmlns="http://www.w3.org/2000/svg" xmlns:xlink="http://www.w3.org/1999/xlink">
    <title>Langauge icon</title>
    <g id="Profile" stroke="none" stroke-width="1" fill="none" fill-rule="evenodd">
        <g id="Profile-/-My-Menu" transform="translate(-1001, -192)">
            <g id="Group-10" transform="translate(985, 48)">
                <g id="Group-6" transform="translate(0, 132)">
                    <g id="Langauge-icon" transform="translate(16, 12)">
                        <rect id="Rectangle" x="0" y="0" width="24" height="24"></rect>
                        <g id="language_FILL0_wght400_GRAD0_opsz24" transform="translate(2, 2)" fill="#979797" fill-rule="nonzero">
                            <path d="M10,20 C8.63333333,20 7.34166667,19.7375 6.125,19.2125 C4.90833333,18.6875 3.84583333,17.9708333 2.9375,17.0625 C2.02916667,16.1541667 1.3125,15.0916667 0.7875,13.875 C0.2625,12.6583333 0,11.3666667 0,10 C0,8.61666667 0.2625,7.32083333 0.7875,6.1125 C1.3125,4.90416667 2.02916667,3.84583333 2.9375,2.9375 C3.84583333,2.02916667 4.90833333,1.3125 6.125,0.7875 C7.34166667,0.2625 8.63333333,0 10,0 C11.3833333,0 12.6791667,0.2625 13.8875,0.7875 C15.0958333,1.3125 16.1541667,2.02916667 17.0625,2.9375 C17.9708333,3.84583333 18.6875,4.90416667 19.2125,6.1125 C19.7375,7.32083333 20,8.61666667 20,10 C20,11.3666667 19.7375,12.6583333 19.2125,13.875 C18.6875,15.0916667 17.9708333,16.1541667 17.0625,17.0625 C16.1541667,17.9708333 15.0958333,18.6875 13.8875,19.2125 C12.6791667,19.7375 11.3833333,20 10,20 Z M10,17.95 C10.4333333,17.35 10.8083333,16.725 11.125,16.075 C11.4416667,15.425 11.7,14.7333333 11.9,14 L8.1,14 C8.3,14.7333333 8.55833333,15.425 8.875,16.075 C9.19166667,16.725 9.56666667,17.35 10,17.95 Z M7.4,17.55 C7.1,17 6.8375,16.4291667 6.6125,15.8375 C6.3875,15.2458333 6.2,14.6333333 6.05,14 L3.1,14 C3.58333333,14.8333333 4.1875,15.5583333 4.9125,16.175 C5.6375,16.7916667 6.46666667,17.25 7.4,17.55 Z M12.6,17.55 C13.5333333,17.25 14.3625,16.7916667 15.0875,16.175 C15.8125,15.5583333 16.4166667,14.8333333 16.9,14 L13.95,14 C13.8,14.6333333 13.6125,15.2458333 13.3875,15.8375 C13.1625,16.4291667 12.9,17 12.6,17.55 Z M2.25,12 L5.65,12 C5.6,11.6666667 5.5625,11.3375 5.5375,11.0125 C5.5125,10.6875 5.5,10.35 5.5,10 C5.5,9.65 5.5125,9.3125 5.5375,8.9875 C5.5625,8.6625 5.6,8.33333333 5.65,8 L2.25,8 C2.16666667,8.33333333 2.10416667,8.6625 2.0625,8.9875 C2.02083333,9.3125 2,9.65 2,10 C2,10.35 2.02083333,10.6875 2.0625,11.0125 C2.10416667,11.3375 2.16666667,11.6666667 2.25,12 Z M7.65,12 L12.35,12 C12.4,11.6666667 12.4375,11.3375 12.4625,11.0125 C12.4875,10.6875 12.5,10.35 12.5,10 C12.5,9.65 12.4875,9.3125 12.4625,8.9875 C12.4375,8.6625 12.4,8.33333333 12.35,8 L7.65,8 C7.6,8.33333333 7.5625,8.6625 7.5375,8.9875 C7.5125,9.3125 7.5,9.65 7.5,10 C7.5,10.35 7.5125,10.6875 7.5375,11.0125 C7.5625,11.3375 7.6,11.6666667 7.65,12 Z M14.35,12 L17.75,12 C17.8333333,11.6666667 17.8958333,11.3375 17.9375,11.0125 C17.9791667,10.6875 18,10.35 18,10 C18,9.65 17.9791667,9.3125 17.9375,8.9875 C17.8958333,8.6625 17.8333333,8.33333333 17.75,8 L14.35,8 C14.4,8.33333333 14.4375,8.6625 14.4625,8.9875 C14.4875,9.3125 14.5,9.65 14.5,10 C14.5,10.35 14.4875,10.6875 14.4625,11.0125 C14.4375,11.3375 14.4,11.6666667 14.35,12 Z M13.95,6 L16.9,6 C16.4166667,5.16666667 15.8125,4.44166667 15.0875,3.825 C14.3625,3.20833333 13.5333333,2.75 12.6,2.45 C12.9,3 13.1625,3.57083333 13.3875,4.1625 C13.6125,4.75416667 13.8,5.36666667 13.95,6 Z M8.1,6 L11.9,6 C11.7,5.26666667 11.4416667,4.575 11.125,3.925 C10.8083333,3.275 10.4333333,2.65 10,2.05 C9.56666667,2.65 9.19166667,3.275 8.875,3.925 C8.55833333,4.575 8.3,5.26666667 8.1,6 Z M3.1,6 L6.05,6 C6.2,5.36666667 6.3875,4.75416667 6.6125,4.1625 C6.8375,3.57083333 7.1,3 7.4,2.45 C6.46666667,2.75 5.6375,3.20833333 4.9125,3.825 C4.1875,4.44166667 3.58333333,5.16666667 3.1,6 Z" id="Shape"></path>
                        </g>
                    </g>
                </g>
            </g>
        </g>
    </g>
</svg>