<svg width="24" height="24" viewBox="0 0 24 24" xmlns="http://www.w3.org/2000/svg">
    <g fill="none" fill-rule="evenodd">
        <path d="M0 0h24v24H0z"/>
        <path d="m11.878 20 3.706-9.6h1.71L21 20h-1.71l-.876-2.44h-3.95L13.588 20h-1.71zm-6.435-2.4-1.14-1.12 4.113-4.04a9.28 9.28 0 0 1-1.293-1.6c-.387-.6-.743-1.28-1.069-2.04h1.71c.272.52.544.973.815 1.36.272.387.597.773.978 1.16.448-.44.912-1.057 1.394-1.85.482-.793.845-1.55 1.09-2.27H3V5.6h5.701V4h1.63v1.6h5.7v1.6H13.67c-.285.96-.713 1.947-1.283 2.96s-1.134 1.787-1.69 2.32l1.955 1.96-.611 1.64-2.484-2.5-4.114 4.02zm9.53-1.44h2.932l-1.466-4.08-1.466 4.08z" fill="#979797" fill-rule="nonzero"/>
    </g>
</svg>
