<?xml version="1.0" encoding="UTF-8"?>
<svg width="24px" height="24px" viewBox="0 0 24 24" version="1.1" xmlns="http://www.w3.org/2000/svg" xmlns:xlink="http://www.w3.org/1999/xlink">
    <title>Group 2</title>
    <g id="Symbols" stroke="none" stroke-width="1" fill="none" fill-rule="evenodd">
        <g id="Post" transform="translate(-64, -532)">
            <g id="Group-5" transform="translate(64, 532)">
                <rect id="Rectangle" x="0" y="0" width="24" height="24"></rect>
                <g id="Asset-2" transform="translate(6.5405, 1)" fill="#979797" fill-rule="nonzero" stroke="#979797" stroke-width="0.6">
                    <g id="Shape">
                        <path d="M5.94727803,21.4406342 C2.66812202,21.4406342 0,18.7451511 0,15.4323679 C0,12.1195848 2.66812202,9.42410174 5.94727803,9.42410174 C9.22643404,9.42410174 11.8945561,12.1195848 11.8945561,15.4323679 C11.8945561,18.7451511 9.22643404,21.4406342 5.94727803,21.4406342 Z M5.94727803,10.1482073 C3.0623375,10.1482073 0.716755412,12.5178429 0.716755412,15.4323679 C0.716755412,18.346893 3.0623375,20.7165286 5.94727803,20.7165286 C8.83221856,20.7165286 11.1778006,18.346893 11.1778006,15.4323679 C11.1778006,12.5178429 8.83221856,10.1482073 5.94727803,10.1482073 Z"></path>
                        <path d="M10.529137,0.372781746 C10.4413345,0.19356561 10.2245159,0.12115505 10.0489109,0.21166825 C8.47742463,1.00456388 7.18368111,3.89736575 6.60310923,5.39083355 C6.51889047,4.99257547 6.40241772,4.49475287 6.25189908,3.94986341 C6.40241772,3.50815899 7.02061926,1.77211582 7.80725832,0.760178242 C7.92910674,0.602685274 7.90222841,0.37459201 7.74633411,0.251494058 C7.59043981,0.128396106 7.36466186,0.155550066 7.24281344,0.313043034 C6.68016044,1.03714863 6.20889375,2.05994779 5.90606459,2.81663814 C5.59965165,1.90607535 5.20543618,0.959307282 4.71087494,0.168221914 C4.60515352,-0.000132637479 4.38475123,-0.0508200294 4.21631371,0.0559855465 C4.04966808,0.162791122 3.9994952,0.385453594 4.10521662,0.55561841 C5.21081184,2.3260566 5.80571884,5.01791917 6.00282657,6.04433885 L5.49034645,6.04433885 C5.40971147,6.04433885 5.33445215,6.05882097 5.26098472,6.08054413 C4.90619079,4.99438573 3.89198189,2.32967713 1.9370315,0.285889074 C1.79905608,0.141067954 1.57327813,0.137447426 1.42992705,0.276837754 C1.28836785,0.416228082 1.28299219,0.644321346 1.4209676,0.789142466 C3.51747718,2.98318243 4.50301587,6.03528753 4.68399662,6.64896703 C4.65891018,6.72861864 4.64278318,6.81189079 4.64278318,6.89878346 L4.64278318,8.07907559 C4.64278318,8.54974423 5.02266355,8.9335202 5.48855457,8.9335202 L5.58710843,8.9335202 L5.58710843,9.7879648 C5.58710843,9.98709384 5.7483784,10.1500176 5.94548614,10.1500176 C6.14259388,10.1500176 6.30386385,9.98709384 6.30386385,9.7879648 L6.30386385,8.9335202 L6.42929604,8.9335202 C6.89518706,8.9335202 7.27506743,8.54974423 7.27506743,8.07907559 L7.27506743,6.89878346 C7.27506743,6.66525941 7.18188923,6.45345852 7.0295787,6.29777581 C7.53847504,4.84232356 8.92360488,1.59108942 10.367867,0.861553026 C10.545264,0.77285009 10.6169395,0.553808146 10.5273451,0.376402274 L10.529137,0.372781746 Z M6.56010391,8.07726532 C6.56010391,8.14967588 6.50276347,8.20760433 6.43108793,8.20760433 L5.95623747,8.20760433 C5.95623747,8.20760433 5.95086181,8.20760433 5.94727803,8.20760433 C5.94369425,8.20760433 5.94011047,8.20760433 5.93831859,8.20760433 L5.49034645,8.20760433 C5.41867091,8.20760433 5.36133048,8.14967588 5.36133048,8.07726532 L5.36133048,6.8969732 C5.36133048,6.88068082 5.36491426,6.86438844 5.37028992,6.84809607 C5.37208181,6.84447554 5.3738737,6.84085501 5.37745748,6.83723448 C5.39896014,6.79559841 5.44017358,6.76663419 5.49034645,6.76663419 L6.43287982,6.76663419 C6.50455536,6.76663419 6.56189579,6.82456264 6.56189579,6.8969732 L6.56189579,8.07726532 L6.56010391,8.07726532 Z"></path>
                    </g>
                </g>
            </g>
        </g>
    </g>
</svg>