<svg width="24" height="24" viewBox="0 0 24 24" xmlns="http://www.w3.org/2000/svg">
    <g fill="none" fill-rule="evenodd">
        <circle cx="12" cy="12" r="12"/>
        <path d="M12 1c6.075 0 11 4.925 11 11 0 1.702-.388 3.35-1.121 4.844l.756 3.405a2 2 0 0 1-2.386 2.386l-3.405-.756A10.959 10.959 0 0 1 12 23C5.925 23 1 18.075 1 12S5.925 1 12 1zm0 2a9 9 0 1 0 0 18c1.5 0 2.945-.367 4.237-1.058a1 1 0 0 1 .689-.094l3.757.835-.835-3.757a1 1 0 0 1 .094-.689A8.955 8.955 0 0 0 21 12a9 9 0 0 0-9-9zm-3 7a2 2 0 1 1 0 4 2 2 0 0 1 0-4zm6 0a2 2 0 1 1 0 4 2 2 0 0 1 0-4z" fill="#979797"/>
    </g>
</svg>
