<?xml version="1.0" encoding="UTF-8"?>
<svg width="24px" height="24px" viewBox="0 0 24 24" version="1.1" xmlns="http://www.w3.org/2000/svg" xmlns:xlink="http://www.w3.org/1999/xlink">
    <title>Group</title>
    <g id="Settings" stroke="none" stroke-width="1" fill="none" fill-rule="evenodd">
        <g id="My-Account-/-Talent" transform="translate(-96, -144)">
            <g id="Group" transform="translate(96, 144)">
                <rect id="Rectangle" x="0" y="0" width="24" height="24"></rect>
                <g id="Style=Filled,-Type=Default" transform="translate(6.0027, 4.5035)" fill="#77DCBF" fill-rule="nonzero">
                    <path d="M10.3129749,8.99647236 C11.24449,8.99647236 11.9996324,9.75161532 11.9996324,10.6831305 L11.9996324,11.3719733 C11.9996324,11.8019975 11.8652158,12.2212662 11.6151938,12.571136 C10.4557774,14.1935728 8.56255442,14.997335 5.9973439,14.997335 C3.43161786,14.997335 1.53939611,14.1932175 0.382775903,12.5699587 C0.133803986,12.2205332 0,11.8021623 0,11.373112 L0,10.6831305 C0,9.75161532 0.755142331,8.99647236 1.68665743,8.99647236 L10.3129749,8.99647236 Z M5.9973439,0 C8.06841159,0 9.74734354,1.67893213 9.74734354,3.75 C9.74734354,5.82106787 8.06841159,7.5 5.9973439,7.5 C3.92627603,7.5 2.2473439,5.82106787 2.2473439,3.75 C2.2473439,1.67893213 3.92627603,0 5.9973439,0 Z" id="Shape"></path>
                </g>
            </g>
        </g>
    </g>
</svg>