<svg width="208" height="136" viewBox="0 0 208 136" xmlns="http://www.w3.org/2000/svg">
    <g fill-rule="nonzero" fill="none">
        <path d="M206.385 102.275h-21.87a80.31 80.31 0 0 0 2.445-19.713 80.137 80.137 0 0 0-9.28-37.504h15.509c.892 0 1.615-.7 1.615-1.564 0-.864-.723-1.565-1.615-1.565h-17.25C161.303 16.895 133.558 0 101.74 0 80.576 0 61.215 7.475 46.314 19.847H20.07c-.891 0-1.615.701-1.615 1.565s.724 1.564 1.615 1.564h22.68a84.443 84.443 0 0 0-5.197 5.275H1.614c-.89 0-1.614.7-1.614 1.564 0 .865.723 1.565 1.615 1.565h33.252C23.378 45.45 16.518 63.23 16.518 82.562a80.095 80.095 0 0 0 6.055 30.62h-4.255c-.892 0-1.615.701-1.615 1.565s.723 1.564 1.615 1.564h5.623a81.596 81.596 0 0 0 1.858 3.755H6.69c-.891 0-1.615.7-1.615 1.565 0 .864.724 1.564 1.615 1.564h20.847a82.446 82.446 0 0 0 6.68 9.745h135.044a81.894 81.894 0 0 0 11.308-18.953h15.85c.892 0 1.615-.7 1.615-1.565 0-.863-.723-1.564-1.615-1.564h-14.597a80.276 80.276 0 0 0 1.834-5.454h22.73c.891 0 1.614-.7 1.614-1.564 0-.864-.723-1.565-1.615-1.565z" fill-opacity=".706" fill="#E1E1E1"/>
        <g transform="translate(105.097 53.32)" fill="#F2F2F2">
            <path d="M32.46 79.617H22.135c0-.723.605-1.308 1.35-1.308h7.625c.746 0 1.35.585 1.35 1.308zM30.013 78.309h-5.432l1.766-48.755 1.186.764z"/>
            <path d="M31.69 79.617H21.368c0-.723.604-1.308 1.35-1.308h7.625c.745 0 1.35.585 1.35 1.308h-.001zM26.529 29.985l25.978 14.53-.285-1.43a1.177 1.177 0 0 0-.45-.71L34.801 29.647a1.248 1.248 0 0 0-1.095-.197l-3.405.985a1.251 1.251 0 0 1-.958-.11l-2.262-1.265-.551.924-.001.001z"/>
            <path d="M25.978 29.06 0 43.592l1.418.477c.282.095.59.087.866-.023l19.858-7.874c.365-.145.636-.452.728-.824l.82-3.344c.078-.317.288-.59.58-.754l2.26-1.264-.551-.924h-.001z"/>
            <path d="M27.08 29.06V0l-1.136.952a1.17 1.17 0 0 0-.41.736l-2.892 20.6a1.16 1.16 0 0 0 .372 1.02l2.58 2.362c.245.223.384.534.384.86v2.53h1.102zM29.022 78.309h-4.986l1.766-48.755h1.455z"/>
            <ellipse transform="rotate(-76.72 26.524 29.55)" cx="26.524" cy="29.55" rx="1.239" ry="1.275"/>
            <ellipse cx="26.442" cy="29.481" rx="1.165" ry="1.128"/>
            <path d="m.46 43.746 24.817-14.265-.022-.016L0 43.591zM24.047 77.992h4.975v1h-4.975zM26.711.31l.856 28.151.067-.01V0zM52.415 44.052l-25.16-13.69-.004.027 25.256 14.127z"/>
        </g>
        <g transform="translate(119.509 5.471)">
            <path d="M51.966 127.464H35.438c0-1.156.967-2.094 2.16-2.094h12.208c1.193 0 2.16.937 2.16 2.094zM48.05 125.37h-8.697l2.827-78.054 1.9 1.224z" fill="#ECECEC"/>
            <path d="M50.737 127.464H34.208c0-1.156.967-2.094 2.162-2.094h12.206c1.194 0 2.162.937 2.162 2.094h-.001zM42.472 48.006l41.59 23.262-.507-2.552a1.18 1.18 0 0 0-.451-.712L55.417 47.242a1.25 1.25 0 0 0-1.095-.198l-6.113 1.77a1.254 1.254 0 0 1-.959-.11l-3.895-2.179-.882 1.48h-.001zM41.59 46.525 0 69.788l2.535.85c.28.095.588.087.863-.022L36.38 57.538l1.741-7.1 4.351-2.433-.882-1.48h-.001zM43.353 46.525V0l-2.028 1.7c-.225.19-.371.451-.412.736l-4.716 33.609c-.054.378.086.758.372 1.02l4.636 4.242c.245.224.383.536.383.861v4.357h1.765z" fill="#F2F2F2"/>
            <path fill="#F2F2F2" d="M46.463 125.37h-7.982l2.826-78.054h2.33z"/>
            <ellipse fill="#ECECEC" transform="rotate(-67.5 42.472 47.316)" cx="42.472" cy="47.316" rx="1.99" ry="2.035"/>
            <ellipse fill="#F2F2F2" transform="rotate(-67.5 42.333 47.2)" cx="42.333" cy="47.199" rx="1.815" ry="1.856"/>
            <path fill="#ECECEC" d="M.737 70.036 40.47 47.2l-.035-.027L0 69.789zM38.499 124.864h7.965v1h-7.965zM42.765.496l.857 45.07.065-.017V0zM83.914 70.526 43.634 48.61l-.005.043L84.062 71.27z"/>
        </g>
        <g transform="translate(29.417 54.817)">
            <rect fill="#F2F2F2" width="19.352" height="40.327" rx="9.464"/>
            <path d="M10.204 78.166H9.15V14.994a.52.52 0 0 1 .528-.512.52.52 0 0 1 .527.512v63.172z" fill="#E4E4E4"/>
            <path d="M10.204 23.556 7.27 18.629a.536.536 0 0 0-.72-.186.502.502 0 0 0-.194.698l2.936 4.926.914-.511zM10.062 29.447l2.936-4.926a.503.503 0 0 0-.193-.698.537.537 0 0 0-.72.187l-2.936 4.926.914.511z" fill="#E4E4E4"/>
        </g>
        <g transform="translate(51.516 33.666)">
            <rect fill="#F2F2F2" width="24.574" height="51.21" rx="12.017"/>
            <path d="M12.957 99.259h-1.34v-80.22c0-.358.3-.648.67-.648.37 0 .67.29.67.649v80.219z" fill="#E4E4E4"/>
            <path d="M12.957 29.912 9.23 23.657a.683.683 0 0 0-.916-.237.64.64 0 0 0-.245.886l3.727 6.255 1.161-.649zM12.778 37.394l3.727-6.255a.637.637 0 0 0-.245-.886.681.681 0 0 0-.916.237l-3.727 6.255 1.161.649z" fill="#E4E4E4"/>
        </g>
        <path d="M45.062 129.436c.564-.513.822-1.1.6-1.511-.276-.51-1.197-.59-2.18-.23.05-.124.097-.252.14-.384.524-1.62.224-3.154-.668-3.425-.87-.263-1.984.77-2.525 2.323-.448-1.78-1.598-3.035-2.585-2.81-.928.212-1.383 1.66-1.085 3.32-1.36-.581-2.673-.535-3.091.167-.433.727.241 1.906 1.526 2.766-.61.198-1.028.56-1.085 1.013-.07.557.422 1.107 1.205 1.446a.52.52 0 0 0-.03.322c.082.336.522.544 1.096.565V133h7.35v-.006c.141-.018.247-.076.283-.17.024-.06.014-.132-.024-.201.382-.036.67-.183.764-.427.074-.19.019-.41-.135-.626.992-.064 1.756-.485 1.78-1.028.02-.476-.535-.908-1.338-1.105h.002z" fill="#E4E4E4"/>
        <path d="M60.341 126.448c1.037-.944 1.51-2.022 1.102-2.781-.507-.94-2.2-1.084-4.008-.422.093-.228.178-.464.257-.706.963-2.98.413-5.8-1.23-6.3-1.6-.485-3.647 1.415-4.642 4.272-.824-3.274-2.94-5.582-4.752-5.169-1.708.39-2.545 3.053-1.996 6.106-2.501-1.07-4.915-.985-5.684.306-.796 1.337.444 3.506 2.807 5.086-1.12.364-1.89 1.03-1.996 1.863-.129 1.025.778 2.036 2.217 2.66-.08.2-.1.4-.055.593.15.618.958 1 2.016 1.04v.003h13.518v-.011c.26-.034.455-.14.52-.31.045-.115.025-.244-.043-.374.702-.066 1.23-.335 1.404-.784.136-.35.035-.754-.247-1.151 1.825-.118 3.227-.893 3.272-1.89.04-.877-.982-1.67-2.459-2.033v.002z" fill="#F2F2F2"/>
        <path d="M151.217 127.122c-.924-.841-1.345-1.8-.982-2.477.45-.836 1.96-.964 3.569-.375a9.227 9.227 0 0 1-.228-.628c-.858-2.654-.368-5.165 1.094-5.609 1.426-.432 3.248 1.26 4.134 3.803.734-2.914 2.617-4.97 4.232-4.601 1.521.347 2.266 2.719 1.777 5.436 2.227-.953 4.377-.877 5.061.272.709 1.19-.395 3.121-2.5 4.53.998.323 1.684.916 1.778 1.659.115.912-.692 1.812-1.973 2.368.07.177.09.356.048.527-.134.551-.854.89-1.794.927v.003H153.396v-.01c-.232-.03-.405-.124-.463-.276-.04-.102-.023-.216.038-.332-.625-.059-1.096-.298-1.251-.698-.12-.312-.03-.672.22-1.025-1.625-.106-2.874-.795-2.914-1.683-.035-.78.876-1.487 2.19-1.81l.001-.001z" fill="#EAEAEA"/>
        <path d="M164.954 130.608c-.373-.34-.544-.728-.397-1 .182-.339.792-.39 1.442-.153a4.15 4.15 0 0 1-.093-.254c-.347-1.072-.148-2.086.442-2.266.576-.174 1.313.509 1.67 1.537.297-1.178 1.058-2.008 1.71-1.86.615.14.916 1.099.718 2.197.9-.385 1.77-.354 2.045.11.286.48-.16 1.261-1.01 1.83.404.13.681.37.719.67.046.369-.28.733-.798.957a.348.348 0 0 1 .02.213c-.054.222-.345.36-.725.373l-.057.001H165.833v-.004c-.093-.012-.163-.05-.187-.112-.016-.041-.01-.087.016-.134-.253-.024-.443-.12-.506-.282-.049-.127-.012-.272.089-.414-.657-.043-1.161-.321-1.178-.68-.014-.316.354-.602.885-.732l.002.003z" fill="#E4E4E4"/>
        <path d="M106.428 127.46c-.87-.793-1.268-1.697-.925-2.334.425-.789 1.847-.91 3.364-.354a8.672 8.672 0 0 1-.215-.592c-.809-2.502-.347-4.87 1.032-5.288 1.343-.407 3.061 1.188 3.897 3.585.69-2.747 2.466-4.684 3.989-4.337 1.433.326 2.135 2.562 1.675 5.124 2.1-.898 4.126-.827 4.772.257.668 1.12-.373 2.942-2.356 4.269.94.305 1.587.863 1.674 1.564.11.86-.652 1.709-1.86 2.233a.802.802 0 0 1 .045.497c-.125.518-.803.838-1.691.872v.003h-11.346v-.01c-.219-.028-.381-.117-.437-.26-.036-.096-.02-.204.037-.313-.59-.055-1.033-.282-1.179-.658-.113-.294-.029-.633.208-.966-1.532-.1-2.71-.75-2.747-1.586-.033-.736.825-1.402 2.065-1.707h-.002z" fill="#F2F2F2"/>
        <path d="M119.024 129.844c-.493-.449-.718-.96-.524-1.322.24-.447 1.046-.515 1.906-.2a4.522 4.522 0 0 1-.122-.336c-.458-1.417-.197-2.758.584-2.995.761-.23 1.734.673 2.207 2.03.392-1.556 1.397-2.653 2.26-2.456.812.185 1.21 1.451.949 2.903 1.19-.509 2.337-.469 2.703.145.378.635-.212 1.666-1.335 2.418.533.173.9.489.949.886.062.487-.37.967-1.054 1.264a.46.46 0 0 1 .026.282c-.071.294-.456.475-.958.494v.002h-6.426v-.005c-.124-.017-.216-.067-.248-.148-.02-.055-.012-.115.022-.177-.334-.031-.585-.16-.668-.373-.065-.166-.016-.358.117-.547-.868-.056-1.535-.425-1.556-.898-.019-.417.468-.794 1.17-.967h-.002z" fill="#E4E4E4"/>
        <g fill="#F2F2F2">
            <path d="M125.404 55.743a.786.786 0 0 0-.227.033c.003-.037.004-.074.004-.111 0-.857-.717-1.551-1.601-1.551-.734 0-1.352.478-1.541 1.13a1.085 1.085 0 0 0-.282-.038c-.574 0-1.038.45-1.038 1.005 0 .555.464 1.005 1.038 1.005.018 0 .036 0 .054-.002v.002h3.594c.42 0 .76-.33.76-.737a.749.749 0 0 0-.76-.736zM97.449 38.802c-.433 0-.838.116-1.184.316-.358-1.5-1.746-2.62-3.404-2.62-.146 0-.29.01-.431.027-.773-1.668-2.502-2.83-4.51-2.83-2.73 0-4.942 2.144-4.942 4.788v.085c-.33-.151-.699-.237-1.088-.237-1.409 0-2.55 1.106-2.55 2.47s1.141 2.47 2.55 2.47h15.559c1.273 0 2.306-1 2.306-2.234s-1.033-2.234-2.306-2.234v-.001zM73.735 92.005c.285 0 .55.076.779.208.235-.987 1.148-1.723 2.24-1.723.095 0 .19.006.283.017.508-1.097 1.645-1.86 2.967-1.86 1.796 0 3.251 1.409 3.251 3.149v.055c.217-.1.46-.155.716-.155.927 0 1.677.727 1.677 1.624 0 .897-.751 1.624-1.677 1.624H73.736c-.838 0-1.517-.658-1.517-1.47 0-.811.679-1.47 1.517-1.47h-.001z"/>
        </g>
        <g>
            <path d="m178.586 124.25-.047.18c-.005.02-.128.482-.434 1.055-.284.532-.783 1.26-1.557 1.716-.775.455-1.659.537-2.265.526a5.366 5.366 0 0 1-1.138-.133l-.18-.045.047-.18c.005-.02.128-.481.434-1.055.284-.532.783-1.26 1.557-1.715.774-.455 1.659-.538 2.264-.527.652.01 1.118.128 1.138.133l.181.045zm-5.157 3.026c.494.086 1.849.243 2.932-.392 1.084-.636 1.601-1.888 1.764-2.36-.494-.087-1.849-.244-2.932.391-1.085.637-1.6 1.888-1.764 2.361z" fill="#E4E4E4"/>
            <path d="M176.003 128.551c-1.722.646-3.639-.209-3.639-.209s.874-1.9 2.594-2.546c1.72-.645 3.639.209 3.639.209s-.874 1.9-2.594 2.546z" fill="#F2F2F2"/>
            <path d="M175.408 113.939v.23c-.002.025-.01.62-.204 1.402-.18.727-.561 1.757-1.357 2.54-.796.782-1.838 1.147-2.572 1.316a6.903 6.903 0 0 1-1.414.183h-.232l.002-.23c0-.025.01-.62.203-1.403.179-.726.56-1.756 1.356-2.539.796-.782 1.838-1.147 2.572-1.316.789-.182 1.39-.183 1.414-.182h.232v-.001zm-5.301 5.203c.624-.045 2.304-.264 3.416-1.355 1.114-1.094 1.357-2.76 1.41-3.379-.625.045-2.305.264-3.417 1.356-1.114 1.093-1.357 2.76-1.41 3.378z" fill="#E4E4E4"/>
            <path d="M173.603 119.907c-1.88 1.296-4.455.843-4.455.843s.474-2.555 2.355-3.852c1.88-1.296 4.455-.843 4.455-.843s-.474 2.555-2.355 3.852z" fill="#F2F2F2"/>
            <path d="m51.186 110.938.147.124c.016.015.394.339.794.88.37.503.828 1.296.904 2.22.076.925-.246 1.78-.53 2.338a5.57 5.57 0 0 1-.64.996l-.125.148-.146-.124c-.017-.015-.395-.339-.794-.88-.371-.503-.829-1.296-.905-2.22-.076-.925.246-1.78.53-2.338.306-.599.626-.98.639-.996l.125-.148h.001zm.505 6.152c.306-.42 1.064-1.606.957-2.895-.107-1.293-1.047-2.338-1.416-2.703-.306.42-1.064 1.606-.957 2.895.107 1.293 1.047 2.338 1.416 2.703z" fill="#E4E4E4"/>
            <path d="M54.055 115.28c-.174 1.887-1.843 3.279-1.843 3.279s-1.387-1.669-1.214-3.557c.174-1.888 1.843-3.28 1.843-3.28s1.388 1.669 1.214 3.557z" fill="#F2F2F2"/>
            <g>
                <path d="m31.875 122.028.162-.01c.018 0 .436-.028.997.066.52.086 1.264.296 1.856.807.591.51.902 1.216 1.061 1.715.17.538.203.955.203.973l.013.16-.163.011c-.018 0-.436.027-.997-.067-.52-.086-1.264-.296-1.855-.807-.592-.51-.903-1.215-1.062-1.715a4.54 4.54 0 0 1-.203-.973l-.012-.16zm3.935 3.406c-.063-.43-.307-1.586-1.134-2.302-.828-.716-2.011-.795-2.449-.798.064.43.308 1.586 1.134 2.301.829.716 2.012.795 2.45.799z" fill="#E4E4E4"/>
                <path d="M36.163 122.966c1.011 1.238.828 3.048.828 3.048s-1.821-.194-2.83-1.431c-1.01-1.237-.829-3.048-.829-3.048s1.822.194 2.831 1.431z" fill="#F2F2F2"/>
            </g>
            <g>
                <path d="m147.581 119.584.183-.005c.02 0 .49-.01 1.114.119.579.12 1.404.39 2.044.99.638.601.957 1.405 1.11 1.973.167.611.183 1.079.183 1.099l.006.181-.183.006c-.02 0-.49.01-1.114-.119-.579-.12-1.404-.39-2.044-.99-.639-.601-.957-1.405-1.11-1.973a5.136 5.136 0 0 1-.183-1.099l-.006-.182zm4.258 3.998c-.052-.486-.273-1.793-1.165-2.63-.895-.84-2.22-.985-2.71-1.008.053.486.274 1.793 1.166 2.63.895.84 2.219.984 2.709 1.008z" fill="#E4E4E4"/>
                <path d="M152.347 120.83c1.076 1.434.789 3.457.789 3.457s-2.033-.3-3.11-1.734c-1.076-1.433-.788-3.456-.788-3.456s2.033.3 3.11 1.734z" fill="#F2F2F2"/>
            </g>
        </g>
        <g>
            <path fill="#213555" d="m79.053 126.657.78-2.74 1.523-5.349.921-3.24 1.36-4.774 2.621-9.206 1.36-4.776L97.177 63h6.611l3.503 12.304 6.056 21.268 1.36 4.776 2.62 9.206 1.36 4.775 2.445 8.588.78 2.74z"/>
            <path d="m79.053 126.657.78-2.74 1.523-5.349c29.866-1.712 25.936-43.264 25.936-43.264l13.841 48.614.78 2.74h-42.86z" fill="#1A2A44"/>
            <path fill="#213555" d="M70.283 126.657h60.398v5.572H70.283z"/>
            <path fill="#142033" d="M121.912 126.657h-42.86l.78-2.74h41.3z"/>
            <path d="M114.707 101.348s-.898 18.38-22.66 22.585l29.086-.016-6.426-22.569z" fill="#213555"/>
            <path fill="#FFF" d="M114.707 101.348H86.258l1.36-4.776h25.73zM118.687 115.329h-36.41l1.36-4.775h33.69z"/>
            <path d="M116.711 126.657s-8.006 5.865-37.658 5.572h51.629v-5.572H116.71z" fill="#1A2A44"/>
            <g transform="translate(29 132.157)" fill="#213555">
                <rect x="30.597" width="80.93" height="3.843" rx=".95"/>
                <rect x="19.303" width="14.732" height="3.843" rx=".95"/>
                <rect width="15.38" height="3.843" rx=".95"/>
                <rect x="115.606" width="12.973" height="3.843" rx=".95"/>
                <rect x="132.668" width="10.332" height="3.843" rx=".95"/>
            </g>
        </g>
    </g>
</svg>
