<?xml version="1.0" encoding="UTF-8"?>
<svg width="24px" height="24px" viewBox="0 0 24 24" version="1.1" xmlns="http://www.w3.org/2000/svg" xmlns:xlink="http://www.w3.org/1999/xlink">
    <title>Group 3</title>
    <g id="Settings" stroke="none" stroke-width="1" fill="none" fill-rule="evenodd">
        <g id="My-Account-/-Talent" transform="translate(-96, -284)">
            <g id="Group-5" transform="translate(80, 267)">
                <g id="Group-3" transform="translate(16, 17)">
                    <rect id="Rectangle" x="0" y="0" width="24" height="24"></rect>
                    <g id="Style=Outlined,-Type=Default" transform="translate(4.5205, 3.6635)" fill="#979797" fill-rule="nonzero">
                        <path d="M7.47954448,0 C10.8544795,0 13.6100986,2.66228477 13.7260501,6.0408771 L13.7295437,6.2499996 L13.7295437,9.66414293 L14.8795462,12.2941526 C14.9370924,12.4257586 14.9667978,12.567843 14.9667978,12.7114805 C14.9667978,13.286777 14.5004277,13.7531471 13.9251312,13.7531471 L9.97954448,13.7543933 C9.97954448,15.1351051 8.86025627,16.2543933 7.47954448,16.2543933 C6.14814371,16.2543933 5.05982702,15.2136271 4.98378833,13.9012877 L4.97916698,13.7525002 L1.04193111,13.7531471 C0.899148842,13.7531471 0.757891136,13.7237926 0.626929648,13.6669079 C0.099261202,13.4377089 -0.142695993,12.8241479 0.0865030637,12.2964795 L1.22954428,9.66493607 L1.22954428,6.24991059 C1.2300415,2.78758446 4.02295073,0 7.47954448,0 Z M8.72916698,13.7525002 L6.22954448,13.7543933 C6.22954448,14.4447492 6.78918858,15.0043933 7.47954448,15.0043933 C8.12929123,15.0043933 8.66325185,14.5086537 8.72382243,13.8747772 L8.72916698,13.7525002 Z M7.47954448,1.25 C4.71274316,1.25 2.4799423,3.47854336 2.47954428,6.2499996 L2.47954428,9.92468993 L1.35956108,12.5031471 L13.6066564,12.5031471 L12.4795445,9.92548466 L12.4796367,6.26071334 L12.4765118,6.07304533 C12.3839622,3.37848385 10.180857,1.25 7.47954448,1.25 Z" id="Shape"></path>
                    </g>
                </g>
            </g>
        </g>
    </g>
</svg>