<?xml version="1.0" encoding="UTF-8"?>
<svg width="24px" height="24px" viewBox="0 0 24 24" version="1.1" xmlns="http://www.w3.org/2000/svg" xmlns:xlink="http://www.w3.org/1999/xlink">
    <title>Style=Filled, Type=Default</title>
    <g id="Settings" stroke="none" stroke-width="1" fill="none" fill-rule="evenodd">
        <g id="Style=Filled,-Type=Default" transform="translate(3.0019, 2.0039)" fill="#77DCBF" fill-rule="nonzero">
            <path d="M6.03977537,16.9990654 L11.9563255,16.9990654 C11.7176834,18.4172016 10.4840375,19.4976006 8.99805069,19.4976006 C7.51206386,19.4976006 6.27841743,18.4172016 6.03977537,16.9990654 Z M8.99805069,0 C13.1401863,0 16.4980507,3.35786486 16.4980507,7.5 L16.4980507,11.4985085 L17.9163818,14.6586018 C17.9712889,14.7809368 17.9996758,14.9135098 17.9996758,15.0476017 C17.9996758,15.5722722 17.5743455,15.9976006 17.049675,15.9976006 L0.950235609,15.9976006 C0.816450957,15.9976006 0.684174943,15.9693446 0.56206775,15.9146805 C0.083193365,15.7003012 -0.131222386,15.1383078 0.0831568497,14.6594334 L1.49805451,11.4988747 L1.49816132,7.48708296 L1.50257826,7.23716688 C1.64164882,3.20643997 4.95392227,0 8.99805069,0 Z" id="Shape"></path>
        </g>
    </g>
</svg>