<svg width="24" height="24" viewBox="0 0 24 24" xmlns="http://www.w3.org/2000/svg">
    <path d="M21.78 2.22a.75.75 0 0 1 .073.976l-.073.084-4.034 4.035a9.986 9.986 0 0 1 3.955 5.75.75.75 0 0 1-1.455.364 8.49 8.49 0 0 0-3.58-5.034l-1.81 1.81A4 4 0 0 1 9.2 15.861L3.28 21.779a.75.75 0 0 1-1.133-.976l.073-.084 6.113-6.115-.001-.001 1.2-1.198 2.87-2.87H12.4l2.881-2.878-.001-.002 1.133-1.13L20.72 2.22a.75.75 0 0 1 1.06 0zm-7.984 9.045-3.535 3.536a2.5 2.5 0 0 0 3.535-3.535zM12 5.5c1 0 1.97.148 2.889.425l-1.237 1.236a8.503 8.503 0 0 0-9.9 6.272.75.75 0 1 1-1.454-.363A10.003 10.003 0 0 1 12 5.5zm-.195 3.51-3.801 3.8a4.003 4.003 0 0 1 3.801-3.8z" fill="#979797" fill-rule="nonzero"/>
</svg>
