<?xml version="1.0" encoding="UTF-8"?>
<svg width="24px" height="24px" viewBox="0 0 24 24" version="1.1" xmlns="http://www.w3.org/2000/svg" xmlns:xlink="http://www.w3.org/1999/xlink">
    <title>Opportunities icon</title>
    <g id="Timeline" stroke="none" stroke-width="1" fill="none" fill-rule="evenodd">
        <g id="Home-Page-For-User" transform="translate(-96, -335)" fill="#979797" fill-rule="nonzero">
            <g id="Group-4" transform="translate(80, 140)">
                <g id="Group-3" transform="translate(0, 183)">
                    <g id="Opportunities-icon" transform="translate(20.75, 14.0007)">
                        <path d="M6.5,4.74975586 C6.5,4.3355422 6.83578634,3.99975586 7.25,3.99975586 C7.66421366,3.99975586 8,4.3355422 8,4.74975586 L8,6.24978638 C8,6.66400003 7.66421366,6.99978638 7.25,6.99978638 C6.83578634,6.99978638 6.5,6.66400003 6.5,6.24978638 L6.5,4.74975586 Z M11.5303392,6.21509218 C11.2374458,5.92219925 10.7625723,5.92219925 10.4696789,6.21509266 L9.40899658,7.27577448 C9.11610413,7.56866741 9.11610413,8.04354095 9.40899754,8.33643436 C9.70188999,8.62932777 10.1767645,8.62932777 10.4696569,8.33643436 L11.5303392,7.27575254 C11.8232317,6.98285913 11.8232317,6.50798559 11.5303392,6.21509218 Z M4.03032112,6.21509266 C3.73742819,5.92219925 3.26255441,5.92219925 2.96966124,6.21509218 C2.67676783,6.50798559 2.67676783,6.98285913 2.969661,7.27575254 L4.03034258,8.33643436 C4.32323599,8.62932777 4.79810953,8.62932777 5.09100294,8.33643436 C5.38389635,8.04354095 5.38389635,7.56866741 5.09100294,7.27577448 L4.03032112,6.21509266 Z M7.24999952,0 C11.254055,0 14.4999847,3.24593496 14.4999847,7.25 C14.4999847,9.3460598 13.5993261,11.2697086 11.8369465,12.9919043 C11.7599983,13.0671034 11.7004337,13.1576643 11.6618385,13.257206 L11.6303654,13.3595047 L10.4992867,18.2550983 C10.2765827,19.2190208 9.4534626,19.9173622 8.4802475,19.9919815 L8.30703735,19.9986019 L6.19326067,19.9986019 C5.20374155,19.9986019 4.33790684,19.3535519 4.04628992,18.4218559 L4.00088072,18.2545357 L2.87131596,13.3597565 C2.83903503,13.2198629 2.76727533,13.0921726 2.66456032,12.9918547 C0.985154152,11.3516426 0.0877822265,9.52875423 0.00612640381,7.54825401 L0,7.25 L0.00387525558,7.01068592 C0.130140573,3.11739349 3.32601285,0 7.24999952,0 Z M9.36499977,16.4979992 L5.1340003,16.4979992 L5.46246767,17.9172459 C5.53314495,18.2235146 5.78565931,18.449398 6.09005308,18.4915123 L6.19326067,18.4986019 L8.30703735,18.4986019 C8.62129021,18.4986019 8.89812851,18.3034248 9.00765419,18.0163784 L9.03778839,17.9174347 L9.36499977,16.4979992 Z M7.24999952,1.5 C4.14821053,1.5 1.62006259,3.95601439 1.50415182,7.02944469 L1.5,7.25 L1.5067153,7.52700996 C1.58286142,9.09037304 2.30721521,10.5461369 3.71262407,11.918746 C3.9767518,12.1767092 4.17265415,12.4950104 4.28422308,12.8449841 L4.33290529,13.0224781 L4.78799963,14.9980001 L6.5,14.9980001 L6.5,8.7492981 C6.5,8.33508492 6.83578634,7.9992981 7.25,7.9992981 C7.66421366,7.9992981 8,8.33508492 8,8.7492981 L8,14.9980001 L9.71100044,14.9980001 L10.1688652,13.0218401 C10.251893,12.6624727 10.4217577,12.3299704 10.6624126,12.0528917 L10.7885666,11.9191036 C12.1931925,10.546505 12.9171667,9.09063625 12.9932728,7.52705002 L12.9999847,7.25 L12.9958324,7.02944469 C12.8799219,3.9560163 10.3517752,1.5 7.24999952,1.5 Z" id="Shape"></path>
                    </g>
                </g>
            </g>
        </g>
    </g>
</svg>