<?xml version="1.0" encoding="UTF-8"?>
<svg width="24px" height="24px" viewBox="0 0 24 24" version="1.1" xmlns="http://www.w3.org/2000/svg" xmlns:xlink="http://www.w3.org/1999/xlink">
    <title>Style=Filled, Type=Filament</title>
    <g id="Search-Pages" stroke="none" stroke-width="1" fill="none" fill-rule="evenodd">
        <g id="Style=Filled,-Type=Filament" transform="translate(4.75, 2.0007)" fill="#77DCBF" fill-rule="nonzero">
            <path d="M10.7880001,16.9979992 L10.4973392,18.2565384 C10.2741203,19.2198067 9.45126152,19.9174461 8.47854233,19.9919891 L8.30542183,19.9986019 L6.19365168,19.9986019 C5.20425892,19.9986019 4.33850098,19.3537121 4.04678106,18.4221745 L4.00135183,18.2548828 L3.71099997,16.9979992 L10.7880001,16.9979992 Z M7.24999952,0 C11.254055,0 14.4999847,3.24593496 14.4999847,7.25 C14.4999847,9.38656998 13.5644035,11.3432884 11.7346344,13.0907373 C11.699317,13.1244583 11.6746759,13.1677217 11.6636944,13.2152519 L11.1359997,15.4980001 L8,15.4980001 L8,8.7492981 C8,8.33508492 7.66421366,7.9992981 7.25,7.9992981 C6.83578634,7.9992981 6.5,8.33508492 6.5,8.7492981 L6.5,15.4980001 L3.36399984,15.4980001 L2.83800507,13.2154093 C2.82702208,13.167819 2.80234241,13.1244888 2.7670145,13.0907698 C0.936161876,11.3432856 0,9.38656044 0,7.25 C0,3.2459321 3.24593163,0 7.24999952,0 Z M6.5,4.74975586 L6.5,6.24978638 C6.5,6.66400003 6.83578634,6.99978638 7.25,6.99978638 C7.66421366,6.99978638 8,6.66400003 8,6.24978638 L8,4.74975586 C8,4.3355422 7.66421366,3.99975586 7.25,3.99975586 C6.83578634,3.99975586 6.5,4.3355422 6.5,4.74975586 Z M11.5303392,6.21509218 C11.2374458,5.92219925 10.7625723,5.92219925 10.4696789,6.21509266 L9.40899658,7.27577448 C9.11610413,7.56866741 9.11610413,8.04354095 9.40899754,8.33643436 C9.70188999,8.62932777 10.1767645,8.62932777 10.4696569,8.33643436 L11.5303392,7.27575254 C11.8232317,6.98285913 11.8232317,6.50798559 11.5303392,6.21509218 Z M4.03032112,6.21509266 C3.73742819,5.92219925 3.26255441,5.92219925 2.96966124,6.21509218 C2.67676783,6.50798559 2.67676783,6.98285913 2.969661,7.27575254 L4.03034258,8.33643436 C4.32323599,8.62932777 4.79810953,8.62932777 5.09100294,8.33643436 C5.38389635,8.04354095 5.38389635,7.56866741 5.09100294,7.27577448 L4.03032112,6.21509266 Z" id="Shape"></path>
        </g>
    </g>
</svg>