<svg width="20" height="20" viewBox="0 0 20 20" xmlns="http://www.w3.org/2000/svg">
    <path d="M9.498 15.895a3.724 3.724 0 0 1-.73-4.229H3.543A1.874 1.874 0 0 0 1.67 13.54v.767c0 .476.149.941.425 1.33 1.285 1.803 3.388 2.697 6.239 2.697 1.177 0 2.227-.153 3.144-.459l-1.98-1.98zM8.334 1.67a4.167 4.167 0 1 1 0 8.333 4.167 4.167 0 0 1 0-8.333zm5.87 17.493a.623.623 0 0 1-.443-.183l-3.673-3.674a2.889 2.889 0 0 1 4.085-4.086l.03.03.03-.03a2.889 2.889 0 0 1 4.086 4.086l-3.674 3.674a.623.623 0 0 1-.442.183z" fill="#979797" fill-rule="nonzero"/>
</svg>
