<?xml version="1.0" encoding="UTF-8"?>
<svg width="20px" height="20px" viewBox="0 0 20 20" version="1.1" xmlns="http://www.w3.org/2000/svg" xmlns:xlink="http://www.w3.org/1999/xlink">
    <title>Style=Filled, Type=Default</title>
    <g id="Profile" stroke="none" stroke-width="1" fill="none" fill-rule="evenodd">
        <g id="Profile-/-Talent" transform="translate(-114, -842)" fill="#979797" fill-rule="nonzero">
            <g id="Group-9" transform="translate(104, 611)">
                <g id="Group-15" transform="translate(0, 225)">
                    <g id="Style=Filled,-Type=Default" transform="translate(11.6668, 7.6667)">
                        <path d="M7.4545296,0.0392683347 L7.45863994,0.0453563438 C7.74610996,0.0153708334 8.03792715,2.66453526e-15 8.33333333,2.66453526e-15 C12.935706,2.66453526e-15 16.6666667,3.73096069 16.6666667,8.33333333 C16.6666667,12.935706 12.935706,16.6666667 8.33333333,16.6666667 C5.65893531,16.6666667 3.27878455,15.4068438 1.7539676,13.4482876 L1.75182799,13.4478013 L1.75222635,13.4460513 C0.654035012,12.0344893 1.77635684e-15,10.2602895 1.77635684e-15,8.33333333 C1.77635684e-15,4.03169592 3.25930278,0.491308887 7.4430879,0.0469932643 L7.4545296,0.0392683347 Z M8.33333333,1.25 C8.28897317,1.25 8.24470758,1.2504078 8.20054134,1.25121981 C8.30269416,1.45471384 8.41238578,1.69525345 8.51196925,1.95982377 C8.80108277,2.72793035 9.06680902,3.86075099 8.59525363,4.86489415 C8.15976461,5.79223673 7.40797043,6.03216052 6.85348988,6.17542346 L6.782945,6.19362315 C6.2359941,6.33461833 6.02567395,6.38883551 5.87225835,6.62174861 C5.73144078,6.83553537 5.75277289,7.10702578 5.92340787,7.66306957 C5.93540271,7.70215591 5.94837864,7.7434961 5.96191128,7.78660933 C6.02949739,8.00192912 6.11097058,8.26149066 6.15344048,8.50560427 C6.20627244,8.80928198 6.22120142,9.19534206 6.0267357,9.56850529 C5.83382448,9.93868748 5.57812095,10.191017 5.27599812,10.355614 C4.99221245,10.5102205 4.69828526,10.5688524 4.4783771,10.6078482 L4.40089981,10.6215191 C3.97184213,10.6970294 3.76660148,10.7331506 3.56670698,10.9472919 C3.4115386,11.1135189 3.31139187,11.4071139 3.25290481,11.8457484 C3.22909832,12.024289 3.21478228,12.2012806 3.19998205,12.3842573 L3.19203496,12.4818659 C3.1753848,12.6837738 3.15473755,12.9161588 3.10933749,13.1156969 L3.10908834,13.116792 C4.4040672,14.5303313 6.26519283,15.4166667 8.33333333,15.4166667 C9.64751164,15.4166667 10.8781004,15.0587781 11.932954,14.4351498 C11.8510199,14.3516922 11.7620325,14.2536513 11.6742738,14.143165 C11.3913663,13.786993 11.0202845,13.1733839 11.1489677,12.4491707 C11.2108525,12.1008945 11.3975151,11.8093546 11.5779106,11.5857371 C11.7617091,11.3579019 11.9835528,11.1474085 12.1775421,10.9688616 C12.2236292,10.9264429 12.2678041,10.8861073 12.3101632,10.8474302 C12.4586765,10.7118265 12.5848643,10.5966067 12.6928624,10.4834628 C12.8368505,10.332613 12.8681835,10.2646168 12.8698254,10.261054 C12.9264275,10.0738335 12.8570302,9.94114876 12.7814229,9.88268455 C12.7434182,9.85329787 12.692457,9.83202378 12.6232481,9.83147303 C12.5533938,9.83091672 12.4401824,9.85187292 12.2889805,9.94763772 C12.1142117,10.0583283 11.8600146,10.1266726 11.5925217,10.0189678 C11.369702,9.92925088 11.2462624,9.75752115 11.1869669,9.65948582 C11.0670654,9.4612511 10.9996867,9.20431932 10.9558129,9.01593606 C10.9219686,8.87061596 10.8896804,8.70562394 10.860215,8.55505705 C10.8484236,8.49480232 10.8370837,8.43685786 10.8262777,8.38340839 C10.7841849,8.17521572 10.748628,8.02648465 10.7145262,7.93412209 C10.7113907,7.92651388 10.706053,7.9158224 10.6985132,7.90204763 C10.6862362,7.8796188 10.6688698,7.85081228 10.6451448,7.81470935 C10.5968253,7.74118265 10.5336897,7.65475114 10.4554105,7.55104224 C10.4269878,7.51338641 10.3964281,7.47332176 10.3644045,7.43133863 C10.2301669,7.25535075 10.0702016,7.04562982 9.93414084,6.83829308 C9.77099101,6.58967614 9.58655119,6.26473228 9.52825944,5.9182024 C9.49736595,5.73454897 9.49785233,5.52244902 9.57405488,5.30699174 C9.65208769,5.08635799 9.79455551,4.90490834 9.97952938,4.76616939 C10.3823694,4.46402152 10.9741418,3.78902435 11.4989765,3.13363175 C11.7386341,2.83435742 11.9528119,2.55396267 12.1122662,2.34114846 C11.0186386,1.65001094 9.72270012,1.25 8.33333333,1.25 Z" id="Shape"></path>
                    </g>
                </g>
            </g>
        </g>
    </g>
</svg>