<?xml version="1.0" encoding="UTF-8"?>
<svg width="20px" height="20px" viewBox="0 0 20 20" version="1.1" xmlns="http://www.w3.org/2000/svg" xmlns:xlink="http://www.w3.org/1999/xlink">
    <title>Style=Filled, Type=Running</title>
    <g id="Profile" stroke="none" stroke-width="1" fill="none" fill-rule="evenodd">
        <g id="Profile-/-Talent" transform="translate(-114, -662)" fill="#979797" fill-rule="nonzero">
            <g id="Group-9" transform="translate(104, 611)">
                <g id="Group-15" transform="translate(0, 45)">
                    <g id="Style=Filled,-Type=Running" transform="translate(11, 8.5)">
                        <path d="M10.5,2 C10.5,0.895430464 11.3954308,0 12.5,0 C13.6045697,0 14.5,0.895430464 14.5,2 C14.5,2.89118153 13.9171221,3.64622457 13.1118004,3.90469297 L14.7071078,5.5 L16.5,5.5 C17.3284267,5.5 18,6.17157281 18,7 C18,7.82842748 17.3284267,8.5 16.5,8.5 L13.2773659,8.5 C12.6470187,8.5 12.0424893,8.24959581 11.5967667,7.80387322 L11.5,7.70710723 L10.4571077,8.75000018 L11.853554,10.1464464 C11.9473221,10.2402155 12,10.3673918 12,10.5 L12,14 C12,14.8284276 11.3284275,15.5 10.5,15.5 C9.67157286,15.5 9,14.8284276 9,14 L9,12.2071078 L7.45308222,10.6601889 L6.45116293,11.411628 C5.94193803,11.7935469 5.32257805,12 4.68604668,12 L1.5,12 C0.671572936,12 -1.77635684e-15,11.3284275 -1.77635684e-15,10.5 C-1.77635684e-15,9.67157288 0.671573114,9 1.5,9 L5.7500001,9 C6.99264062,9 8,7.99264066 8,6.75000014 L8,5.5 L9,5.5 C9.27614228,5.5 9.5,5.27614271 9.5,5 C9.5,4.7238575 9.27614228,4.5 9,4.5 L7.5,4.5 C7.22385801,4.5 7,4.7238575 7,5 L7,6.75000014 C7,7.44035593 6.44035589,8 5.7500001,8 C5.05964431,8 4.5,7.44035593 4.5,6.75000014 L4.5,4.5 C4.5,3.11928827 5.61928854,2 7,2 L10.5,2 Z" id="Shape"></path>
                    </g>
                </g>
            </g>
        </g>
    </g>
</svg>