<?xml version="1.0" encoding="UTF-8"?>
<svg width="24px" height="24px" viewBox="0 0 24 24" version="1.1" xmlns="http://www.w3.org/2000/svg" xmlns:xlink="http://www.w3.org/1999/xlink">
    <title>Style=Filled, Type=Default</title>
    <g id="Profile" stroke="none" stroke-width="1" fill="none" fill-rule="evenodd">
        <g id="Profile-/-My-Menu" transform="translate(-1001, -73)" fill="#979797" fill-rule="nonzero">
            <g id="Group-10" transform="translate(985, 48)">
                <g id="Group-6" transform="translate(0, 12)">
                    <g id="Style=Filled,-Type=Default" transform="translate(20.0035, 15.0046)">
                        <path d="M13.7506332,11.9952965 C14.9926534,11.9952965 15.9995098,13.0021538 15.9995098,14.244174 L15.9995098,15.162631 C15.9995098,15.7359967 15.8202877,16.2950217 15.4869251,16.7615147 C13.9410366,18.9247637 11.4167392,19.9964466 7.99645853,19.9964466 C4.57549047,19.9964466 2.05252814,18.9242899 0.51036787,16.7599449 C0.178405315,16.2940443 0,15.7362164 0,15.1641493 L0,14.244174 C0,13.0021538 1.00685644,11.9952965 2.24887657,11.9952965 L13.7506332,11.9952965 Z M7.99645853,0 C10.7578821,0 12.9964581,2.23857617 12.9964581,5 C12.9964581,7.76142383 10.7578821,10 7.99645853,10 C5.2350347,10 2.99645853,7.76142383 2.99645853,5 C2.99645853,2.23857617 5.2350347,0 7.99645853,0 Z" id="Shape"></path>
                    </g>
                </g>
            </g>
        </g>
    </g>
</svg>