<svg width="20" height="20" viewBox="0 0 20 20" xmlns="http://www.w3.org/2000/svg">
    <path d="M8.867 2.123a.623.623 0 0 1 .324.03l6.028 2.263a.623.623 0 0 1 .02 1.16l-.715.298a3.543 3.543 0 0 0-1.666 1.432l-.452.743c.071.46.29 1.041.6 1.642.321.622.71 1.205 1.041 1.606l1.985.993a2.29 2.29 0 0 1 1.266 2.049v2.33c0 .344-.28.623-.624.623h-.697c-2.936 0-6.267-.98-9.033-2.458-2.74-1.464-5.076-3.5-5.825-5.72a.623.623 0 0 1 .043-.498c.284-.52.588-1.004.906-1.454.144-.205.4-.479.613-.704l.155-.163a10.83 10.83 0 0 0 .401-.435c.278-.307.667-.7 1.126-1.114a15.706 15.706 0 0 1 2.083-1.599c.759-.477 1.6-.884 2.421-1.024zm4.014 9.709a11.15 11.15 0 0 1-.983-1.569c-.316-.611-.595-1.297-.709-1.935l-1.061-.492 1.31 3.304c.06.152.059.32-.004.47l-.56 1.34 1.012.373.995-1.491zm.243 1.882c1.052.303 1.607.46 2.927.635v-.01c0-.396-.223-.757-.577-.933l-1.607-.805-.743 1.113zm2.927 1.892c-1.558-.2-2.173-.377-3.334-.712-.227-.065-.475-.137-.755-.216a.623.623 0 0 1-.047-.015l-2.083-.77a.623.623 0 0 1-.052-.022c-1.73-.824-2.7-1.432-3.903-2.312-1.465-1.071-2.553-2.118-3.263-2.962-.075.12-.148.244-.22.37.69 1.683 2.611 3.417 5.138 4.768 2.626 1.403 5.756 2.31 8.445 2.31h.074v-.439zM3.369 7.549c.496.634 1.307 1.478 2.445 2.392l.354-1.947L4.71 6.13c-.213.208-.396.398-.54.558-.11.13-.284.312-.453.49l-.13.137c-.079.083-.152.162-.218.234zM5.636 5.29l1.687 2.155c.11.14.154.32.122.495l-.516 2.84c.865.617 1.64 1.098 2.799 1.678l.458-1.095-1.793-4.52a.623.623 0 0 1 .841-.795l2.286 1.058.272-.448a4.79 4.79 0 0 1 1.593-1.6L8.919 3.384c-.552.125-1.173.42-1.808.82-.516.325-1.02.706-1.475 1.088z" fill="#979797" fill-rule="nonzero"/>
</svg>
