<?xml version="1.0" encoding="UTF-8"?>
<svg width="24px" height="24px" viewBox="0 0 24 24" version="1.1" xmlns="http://www.w3.org/2000/svg" xmlns:xlink="http://www.w3.org/1999/xlink">
    <title>Saved</title>
    <g id="Symbols" stroke="none" stroke-width="1" fill="none" fill-rule="evenodd">
        <g id="Saved">
            <circle id="Oval" cx="12" cy="12" r="12"></circle>
            <g id="Group-13-Copy" transform="translate(4.0476, 1.0476)" fill="#979797">
                <path d="M3.80952381,0 L13.0952381,0 C15.19918,0 16.9047619,1.70558191 16.9047619,3.80952381 L16.9047619,19.164295 C16.9047619,20.216266 16.051971,21.069127 15,21.069127 C14.5674411,21.069127 14.147764,20.9218271 13.8100095,20.6515881 L8.45238095,16.3649231 L3.09475238,20.6515881 C2.27334312,21.3088017 1.07468246,21.1756948 0.41746887,20.3542855 C0.14722984,20.016531 0,19.596854 0,19.164295 L0,3.80952381 C0,1.70558191 1.70558191,0 3.80952381,0 Z M3.80952381,1.9047619 C2.75755286,1.9047619 1.9047619,2.75755286 1.9047619,3.80952381 L1.9047619,19.164295 L7.26239047,14.87763 C7.95808068,14.3210049 8.94668123,14.3210049 9.64237143,14.87763 L15,19.164295 L15,3.80952381 C15,2.75755286 14.147209,1.9047619 13.0952381,1.9047619 L3.80952381,1.9047619 Z" id="Rectangle-92"></path>
            </g>
        </g>
    </g>
</svg>