<?xml version="1.0" encoding="UTF-8"?>
<svg width="24px" height="24px" viewBox="0 0 24 24" version="1.1" xmlns="http://www.w3.org/2000/svg" xmlns:xlink="http://www.w3.org/1999/xlink">
    <title>Scouts icon</title>
    <g id="Timeline" stroke="none" stroke-width="1" fill="none" fill-rule="evenodd">
        <g id="Home-Page-For-User" transform="translate(-96, -274)" fill="#979797" fill-rule="nonzero">
            <g id="Group-4" transform="translate(80, 140)">
                <g id="Group-3" transform="translate(0, 122)">
                    <g id="Scouts-icon" transform="translate(18, 14.0046)">
                        <path d="M9.90905094,11.9939585 L17.7530518,11.9952965 C18.9956925,11.9952965 20.0030518,13.0026568 20.0030518,14.2452974 L20.0030518,15.1503763 C20.0030518,16.2440541 19.5255962,17.283232 18.6957798,17.9956474 C17.130332,19.3396181 14.8899963,19.9964466 12,19.9964466 L11.8209524,19.9953117 C12.0546544,19.5247039 12.0633769,18.9708717 11.847311,18.494112 L12,18.4964466 C14.5599799,18.4964466 16.4577994,17.9400375 17.7186871,16.8575382 C18.216577,16.430089 18.5030518,15.806583 18.5030518,15.1503763 L18.5030518,14.2452974 C18.5030518,13.8310839 18.1672654,13.4952965 17.7530518,13.4952965 L9.97749329,13.4953346 C9.99243079,13.3300687 10,13.1632821 10,12.9953756 C10,12.6533817 9.96878554,12.3186781 9.90905094,11.9939585 Z M4.5,8.49537563 C6.98528147,8.49537563 9,10.5100942 9,12.9953756 C9,14.0891817 8.60974944,15.0918398 7.96088696,15.8717108 L10.7827482,18.6859875 C11.0759907,18.978531 11.0765572,19.4534044 10.7840137,19.7466469 C10.518065,20.013231 10.1014302,20.0379328 9.80755901,19.8204288 L9.72335434,19.7479115 L6.82025242,16.851862 C6.14273655,17.260365 5.34881288,17.4953747 4.5,17.4953747 C2.01471853,17.4953747 0,15.4806571 0,12.9953756 C0,10.5100942 2.01471853,8.49537563 4.5,8.49537563 Z M4.5,9.99537563 C2.84314573,9.99537563 1.5,11.3385215 1.5,12.9953756 C1.5,14.6522298 2.84314573,15.9953756 4.5,15.9953756 C6.15685427,15.9953756 7.5,14.6522298 7.5,12.9953756 C7.5,11.3385215 6.15685427,9.99537563 4.5,9.99537563 Z M12,0 C14.7614236,0 17,2.23857617 17,5 C17,7.76142383 14.7614236,10 12,10 C9.23857641,10 7,7.76142383 7,5 C7,2.23857617 9.23857641,0 12,0 Z M12,1.5 C10.0670034,1.5 8.5,3.06700337 8.5,5 C8.5,6.93299663 10.0670034,8.5 12,8.5 C13.9329966,8.5 15.5,6.93299663 15.5,5 C15.5,3.06700337 13.9329966,1.5 12,1.5 Z" id="Shape"></path>
                    </g>
                </g>
            </g>
        </g>
    </g>
</svg>