<?xml version="1.0" encoding="UTF-8"?>
<svg width="24px" height="24px" viewBox="0 0 24 24" version="1.1" xmlns="http://www.w3.org/2000/svg" xmlns:xlink="http://www.w3.org/1999/xlink">
    <title>Style=Filled, Type=Search</title>
    <g id="Search-Pages" stroke="none" stroke-width="1" fill="none" fill-rule="evenodd">
        <g id="Style=Filled,-Type=Search" transform="translate(2, 2.0046)" fill="#77DCBF" fill-rule="nonzero">
            <path d="M9.909235,11.9949589 L17.7530518,11.9952965 C18.9956925,11.9952965 20.0030518,13.0026568 20.0030518,14.2452974 L20.0030518,15.1503763 C20.0030518,16.2440541 19.5255962,17.283232 18.6957798,17.9956474 C17.130332,19.3396181 14.8899963,19.9964466 12,19.9964466 L11.8209524,19.9953117 C12.1231383,19.3867975 12.0491695,18.6391355 11.5994596,18.0988731 L11.4890108,17.9780369 L9.25907707,15.7540979 C9.73944637,14.9270188 10,13.9804725 10,12.9953756 C10,12.6537328 9.9688497,12.3193656 9.909235,11.9949589 Z M4.5,8.49537563 C6.98528147,8.49537563 9,10.5100942 9,12.9953756 C9,14.0891817 8.60974944,15.0918398 7.96088696,15.8717108 L10.7827482,18.6859875 C11.0759907,18.978531 11.0765572,19.4534044 10.7840137,19.7466469 C10.518065,20.013231 10.1014302,20.0379328 9.80755901,19.8204288 L9.72335434,19.7479115 L6.82025242,16.851862 C6.14273655,17.260365 5.34881288,17.4953747 4.5,17.4953747 C2.01471853,17.4953747 0,15.4806571 0,12.9953756 C0,10.5100942 2.01471853,8.49537563 4.5,8.49537563 Z M4.5,9.99537563 C2.84314573,9.99537563 1.5,11.3385215 1.5,12.9953756 C1.5,14.6522298 2.84314573,15.9953756 4.5,15.9953756 C6.15685427,15.9953756 7.5,14.6522298 7.5,12.9953756 C7.5,11.3385215 6.15685427,9.99537563 4.5,9.99537563 Z M12,0 C14.7614236,0 17,2.23857617 17,5 C17,7.76142383 14.7614236,10 12,10 C9.23857641,10 7,7.76142383 7,5 C7,2.23857617 9.23857641,0 12,0 Z" id="Shape"></path>
        </g>
    </g>
</svg>