<?xml version="1.0" encoding="UTF-8"?>
<svg width="24px" height="24px" viewBox="0 0 24 24" version="1.1" xmlns="http://www.w3.org/2000/svg" xmlns:xlink="http://www.w3.org/1999/xlink">
    <title>Style=Filled, Type=Default</title>
    <g id="Profile" stroke="none" stroke-width="1" fill="none" fill-rule="evenodd">
        <g id="Profile-/-My-Menu" transform="translate(-1001, -132)" fill="#979797" fill-rule="nonzero">
            <g id="Group-10" transform="translate(985, 48)">
                <g id="Group-6" transform="translate(0, 72)">
                    <g id="Style=Filled,-Type=Default" transform="translate(18.64, 14.25)">
                        <path d="M9.37252522,0 C10.1065035,0.00845950004 10.8376102,0.0932621509 11.5540371,0.253038168 C11.8667784,0.322785139 12.100667,0.583510995 12.1361666,0.901962996 L12.3063717,2.4288075 C12.3834124,3.12985969 12.975316,3.66084099 13.680974,3.6615808 C13.8706455,3.66187716 14.0582714,3.62237763 14.2335405,3.54483294 L15.6341639,2.92955899 C15.9254704,2.80159211 16.2658157,2.87135792 16.4832821,3.10361552 C17.4954624,4.18464136 18.2492886,5.4811492 18.6880398,6.89558315 C18.7826481,7.20057869 18.6737614,7.53203297 18.4167118,7.72150326 L17.17523,8.63659286 C16.8210907,8.89678955 16.6119347,9.31000519 16.6119347,9.74945641 C16.6119347,10.1889076 16.8210907,10.6021223 17.1760101,10.8628922 L18.4185619,11.7782993 C18.6756992,11.9677372 18.7846603,12.2992382 18.6900539,12.6042891 C18.2514648,14.0184879 17.4980679,15.3148947 16.4864731,16.3960953 C16.269207,16.6283112 15.9291143,16.6982632 15.6378355,16.5706482 L14.2315035,15.9545021 C13.8291855,15.7784424 13.3671122,15.8042336 12.986887,16.0239735 C12.6066618,16.2437134 12.3536205,16.6311989 12.3053017,17.0677319 L12.1362267,18.5944118 C12.1013632,18.909214 11.8725033,19.1681805 11.5643778,19.2414894 C10.1159286,19.5861034 8.6068325,19.5861034 7.15838337,19.2414894 C6.85025787,19.1681805 6.62139797,18.909214 6.5865345,18.5944118 L6.41771221,17.0699883 C6.36812449,16.6342869 6.11469269,16.2479782 5.7347765,16.0289822 C5.35486031,15.8099871 4.89355516,15.7842979 4.49255228,15.9593754 L3.08592606,16.5756493 C2.79457211,16.7032986 2.45438647,16.6332741 2.2371335,16.4009323 C1.2249763,15.3184805 0.471545495,14.0205355 0.0335523263,12.6047935 C-0.0607862845,12.299859 0.0482131541,11.9686241 0.305197626,11.7792997 L1.54852951,10.8633194 C1.90266931,10.6031227 2.11182594,10.189908 2.11182594,9.75045681 C2.11182594,9.31100559 1.90266919,8.89778996 1.54806602,8.63725281 L0.305513054,7.72284603 C0.04814744,7.53344822 -0.0609522387,7.20178175 0.0337189809,6.89658356 C0.47247044,5.4821496 1.22629654,4.18564224 2.23847675,3.1046164 C2.45594287,2.8723588 2.79628992,2.80259252 3.08759642,2.9305594 L4.48797178,3.54572415 C4.89091349,3.72255707 5.35415173,3.69584608 5.73612213,3.4726913 C6.11644173,3.25208759 6.36963797,2.86422253 6.41851902,2.42764211 L6.58859539,0.901962996 C6.62411308,0.583349943 6.85821438,0.322540641 7.17115498,0.252942324 C7.88842869,0.0934198052 8.62030315,0.00865371991 9.37252522,0 Z M9.36004734,6.74995041 C7.70319319,6.74995041 6.36004734,8.09309578 6.36004734,9.74995041 C6.36004734,11.406805 7.70319319,12.7499504 9.36004734,12.7499504 C11.016901,12.7499504 12.3600473,11.406805 12.3600473,9.74995041 C12.3600473,8.09309578 11.016901,6.74995041 9.36004734,6.74995041 Z" id="Shape"></path>
                    </g>
                </g>
            </g>
        </g>
    </g>
</svg>