<?xml version="1.0" encoding="UTF-8"?>
<svg width="18px" height="18px" viewBox="0 0 18 18" version="1.1" xmlns="http://www.w3.org/2000/svg" xmlns:xlink="http://www.w3.org/1999/xlink">
    <title>Shape</title>
    <g id="Profile" stroke="none" stroke-width="1" fill="none" fill-rule="evenodd">
        <g id="Profile-/-My-Menu" transform="translate(-1007, -256)" fill="#979797" fill-rule="nonzero">
            <g id="Group-10" transform="translate(985, 48)">
                <g id="Group-6" transform="translate(0, 192)">
                    <g id="logout_FILL0_wght400_GRAD0_opsz24" transform="translate(22, 16)">
                        <path d="M2,18 C1.45,18 0.979166667,17.8041667 0.5875,17.4125 C0.195833333,17.0208333 0,16.55 0,16 L0,2 C0,1.45 0.195833333,0.979166667 0.5875,0.5875 C0.979166667,0.195833333 1.45,0 2,0 L8,0 C8.28333333,0 8.52083333,0.0958333333 8.7125,0.2875 C8.90416667,0.479166667 9,0.716666667 9,1 C9,1.28333333 8.90416667,1.52083333 8.7125,1.7125 C8.52083333,1.90416667 8.28333333,2 8,2 L2,2 L2,16 L8,16 C8.28333333,16 8.52083333,16.0958333 8.7125,16.2875 C8.90416667,16.4791667 9,16.7166667 9,17 C9,17.2833333 8.90416667,17.5208333 8.7125,17.7125 C8.52083333,17.9041667 8.28333333,18 8,18 L2,18 Z M14.175,10 L7,10 C6.71666667,10 6.47916667,9.90416667 6.2875,9.7125 C6.09583333,9.52083333 6,9.28333333 6,9 C6,8.71666667 6.09583333,8.47916667 6.2875,8.2875 C6.47916667,8.09583333 6.71666667,8 7,8 L14.175,8 L12.3,6.125 C12.1166667,5.94166667 12.025,5.71666667 12.025,5.45 C12.025,5.18333333 12.1166667,4.95 12.3,4.75 C12.4833333,4.55 12.7166667,4.44583333 13,4.4375 C13.2833333,4.42916667 13.525,4.525 13.725,4.725 L17.3,8.3 C17.5,8.5 17.6,8.73333333 17.6,9 C17.6,9.26666667 17.5,9.5 17.3,9.7 L13.725,13.275 C13.525,13.475 13.2875,13.5708333 13.0125,13.5625 C12.7375,13.5541667 12.5,13.45 12.3,13.25 C12.1166667,13.05 12.0291667,12.8125 12.0375,12.5375 C12.0458333,12.2625 12.1416667,12.0333333 12.325,11.85 L14.175,10 Z" id="Shape"></path>
                    </g>
                </g>
            </g>
        </g>
    </g>
</svg>