<?xml version="1.0" encoding="UTF-8"?>
<svg width="24px" height="24px" viewBox="0 0 24 24" version="1.1" xmlns="http://www.w3.org/2000/svg" xmlns:xlink="http://www.w3.org/1999/xlink">
    <title>Group 6 2</title>
    <g id="Symbols" stroke="none" stroke-width="1" fill="none" fill-rule="evenodd">
        <g id="Post" transform="translate(-19, -482)">
            <g id="Post-Action" transform="translate(0, 465)">
                <g id="Group-6" transform="translate(19, 17)">
                    <rect id="Rectangle" x="0" y="0" width="24" height="24"></rect>
                    <g id="Group-2" transform="translate(6, 1)" fill-rule="nonzero">
                        <g id="Group">
                            <g transform="translate(0.2721, 9.9867)">
                                <path d="M11.3627326,5.84825696 C11.3627326,9.02085342 8.85896644,11.5916224 5.77128943,11.5916224 C4.56369678,11.5916224 3.44468503,11.1978341 2.52995168,10.529137 C2.08162387,10.2003609 1.68391372,9.80657256 1.34766786,9.36077447 C1.14519724,9.09329561 0.966227666,8.80724183 0.814374698,8.50632811 C0.611904074,8.10882481 0.452820013,7.68345913 0.346161381,7.23766103 C0.237694975,6.79372042 0.181653999,6.3293474 0.181653999,5.85011445 C0.181653999,3.17718336 1.95869528,0.931475444 4.36303393,0.29064068 C4.78243737,0.179191155 5.21991854,0.116036425 5.67005412,0.108606456 C5.70440181,0.108606456 5.73694174,0.108606456 5.77128943,0.108606456 C6.07318759,0.108606456 6.36966244,0.132753853 6.65890618,0.181048647 C7.21208485,0.270208267 7.73633915,0.444812521 8.2226302,0.690001475 C10.0810213,1.62246249 11.3627326,3.58397412 11.3627326,5.85382943 L11.3627326,5.84825696 Z" id="Path" fill="#E1E1E3"></path>
                                <ellipse id="Oval" fill="#B3B2B8" transform="translate(5.7702, 5.847) rotate(-74.58) translate(-5.7702, -5.847)" cx="5.77016524" cy="5.84696129" rx="4.77781406" ry="4.66780841"></ellipse>
                                <ellipse id="Oval" fill="#A3939A" cx="5.99003002" cy="6.06001105" rx="4.05302802" ry="4.16449722"></ellipse>
                                <ellipse id="Oval" fill="#E1E1E3" cx="5.77128943" cy="5.84825696" rx="4.05302802" ry="4.16449722"></ellipse>
                                <g opacity="0.27" transform="translate(0.3462, 0.1049)" fill="#FFFFFF" id="Path">
                                    <path d="M5.32389274,0 L0.468213317,8.39957915 C0.265742694,8.00207585 0.106658632,7.57671016 0,7.13091206 L4.01687255,0.183891715 C4.43627599,0.0724421908 4.87375716,0.00928746036 5.32389274,0.00185749207 L5.32389274,0 Z"></path>
                                </g>
                                <g opacity="0.27" transform="translate(1.3495, 0.1773)" fill="#FFFFFF" id="Path">
                                    <path d="M6.87315456,0.507095336 L1.18228382,10.3518033 C0.733956011,10.0230272 0.336245857,9.6292389 0,9.1834408 L5.30943055,0 C5.86260922,0.0891596194 6.38686351,0.263763874 6.87315456,0.508952828 L6.87315456,0.507095336 Z"></path>
                                </g>
                            </g>
                            <g fill="#979797" id="Shape" stroke="#979797" stroke-width="0.371498414">
                                <path d="M6,22 C2.69177463,22 0,19.2341943 0,15.8349838 C0,12.4357733 2.69177463,9.66996763 6,9.66996763 C9.30822537,9.66996763 12,12.4357733 12,15.8349838 C12,19.2341943 9.30822537,22 6,22 L6,22 Z M6,10.4129645 C3.08948478,10.4129645 0.72310937,12.8444216 0.72310937,15.8349838 C0.72310937,18.825546 3.08948478,21.2570032 6,21.2570032 C8.91051522,21.2570032 11.2768906,18.825546 11.2768906,15.8349838 C11.2768906,12.8444216 8.91051522,10.4129645 6,10.4129645 L6,10.4129645 Z"></path>
                                <path d="M10.6224766,0.382507269 C10.5338958,0.198615554 10.3151552,0.124315871 10.1379934,0.217190475 C8.55257608,1.030772 7.24736366,3.99904433 6.66164507,5.53147529 C6.57667972,5.12282704 6.45917445,4.61201672 6.30732148,4.0529116 C6.45917445,3.59968354 7.08285628,1.81834864 7.87646882,0.780010572 C7.99939741,0.618408762 7.97228081,0.384364761 7.81500452,0.2580553 C7.65772823,0.131745839 7.42994878,0.15960822 7.30702019,0.321210031 C6.73937933,1.06420686 6.26393492,2.11368988 5.95842121,2.89012157 C5.64929196,1.95580305 5.2515818,0.9843347 4.75263634,0.172610665 C4.6459777,-0.000136097865 4.42362157,-0.0521458759 4.25369087,0.0574461564 C4.08556794,0.167038189 4.03495029,0.395509713 4.14160892,0.570113968 C5.25700512,2.38674121 5.8571859,5.14883193 6.05604098,6.20202993 L5.53901778,6.20202993 C5.45766797,6.20202993 5.38174149,6.21688987 5.30762278,6.23917977 C4.94968364,5.12468453 3.92648388,2.3904562 1.95420307,0.293347649 C1.81500452,0.144748284 1.58722507,0.1410333 1.44260319,0.284060189 C1.29978909,0.427087079 1.29436577,0.66113108 1.43356433,0.809730445 C3.54865923,3.06101084 4.54293462,6.19274247 4.72551973,6.82243228 C4.70021091,6.90416193 4.68394095,6.98960657 4.68394095,7.07876619 L4.68394095,8.28985102 C4.68394095,8.77279896 5.06718891,9.16658728 5.53721,9.16658728 L5.63663754,9.16658728 L5.63663754,10.0433235 C5.63663754,10.2476477 5.79933715,10.4148219 5.99819223,10.4148219 C6.1970473,10.4148219 6.35974691,10.2476477 6.35974691,10.0433235 L6.35974691,9.16658728 L6.48629105,9.16658728 C6.95631214,9.16658728 7.33956011,8.77279896 7.33956011,8.28985102 L7.33956011,7.07876619 C7.33956011,6.83914971 7.24555589,6.62182314 7.09189515,6.46207882 C7.6053028,4.96865519 9.00271166,1.63259943 10.459777,0.884030128 C10.6387466,0.793013017 10.7110575,0.568256476 10.6206689,0.386222253 L10.6224766,0.382507269 Z M6.61825851,8.28799353 C6.61825851,8.36229321 6.56040976,8.42173296 6.48809882,8.42173296 L6.00903887,8.42173296 C6.00903887,8.42173296 6.00361555,8.42173296 6,8.42173296 C5.99638445,8.42173296 5.99276891,8.42173296 5.99096113,8.42173296 L5.53901778,8.42173296 C5.46670684,8.42173296 5.40885809,8.36229321 5.40885809,8.28799353 L5.40885809,7.0769087 C5.40885809,7.06019127 5.41247364,7.04347384 5.41789696,7.02675641 C5.41970473,7.02304143 5.4215125,7.01932644 5.42512805,7.01561146 C5.44682133,6.97288914 5.48840012,6.94316927 5.53901778,6.94316927 L6.4899066,6.94316927 C6.56221754,6.94316927 6.62006629,7.00260901 6.62006629,7.0769087 L6.62006629,8.28799353 L6.61825851,8.28799353 Z"></path>
                            </g>
                        </g>
                    </g>
                </g>
            </g>
        </g>
    </g>
</svg>