<svg width="20" height="20" viewBox="0 0 20 20" xmlns="http://www.w3.org/2000/svg">
    <path d="M10 1.667a8.333 8.333 0 1 0 0 16.666 8.333 8.333 0 0 0 0-16.666zM6.87 3.644l2.507 1.5v1.828L7.05 8.662l-1.704-.59-.488-2.944A7.105 7.105 0 0 1 6.87 3.644zm-3.852 7.555 1.94-1.939 1.698.588.902 2.777-.807 1.313-2.745-.162a7.04 7.04 0 0 1-.988-2.577zm5.757 5.779-.987-2.341.803-1.306h2.81l.76 1.318-.867 2.316a7.124 7.124 0 0 1-2.52.013zm6.968-2.831-2.52-.158-.781-1.354.905-2.787 1.678-.58 1.926 2.1a7.048 7.048 0 0 1-1.208 2.779zm-.6-9.017-.49 2.944-1.7.588-2.326-1.69V5.143l2.502-1.5c.758.374 1.44.88 2.014 1.487z" fill="#979797" fill-rule="nonzero"/>
</svg>
