<?xml version="1.0" encoding="UTF-8"?>
<svg width="24px" height="24px" viewBox="0 0 24 24" version="1.1" xmlns="http://www.w3.org/2000/svg" xmlns:xlink="http://www.w3.org/1999/xlink">
    <title>Group 10</title>
    <g id="Search-Pages" stroke="none" stroke-width="1" fill="none" fill-rule="evenodd">
        <g id="Group-10">
            <rect id="Rectangle" x="0" y="0" width="24" height="24"></rect>
            <g id="Group-8" transform="translate(1.6, 2.4)" fill="#77DCBF" fill-rule="nonzero">
                <g id="Style=Filled,-Type=Ribbon">
                    <path d="M8.40000033,0 C5.74903358,0 3.60000014,2.14903332 3.60000014,4.79999991 C3.60000014,7.4509665 5.74903358,9.59999982 8.40000033,9.59999982 C11.0509671,9.59999982 13.2000005,7.4509665 13.2000005,4.79999991 C13.2000005,2.14903332 11.0509671,0 8.40000033,0 Z M2.41047201,10.7999998 C1.083781,10.7999987 0,11.8642454 0,13.2000066 C0,15.2294377 0.99937195,16.7595654 2.56199294,17.7559098 C4.10036103,18.7367897 6.17430979,19.2000042 8.40000033,19.2000042 C9.67367058,19.2000042 10.8976483,19.0483116 12,18.7347206 L12,16.3740929 C11.2531682,15.5279752 10.8000004,14.4165319 10.8000004,13.1992261 C10.8000004,12.3252454 11.0335961,11.5058336 11.4417565,10.8000055 L2.41047201,10.7999998 Z" id="Shape"></path>
                </g>
                <g id="Style=Filled,-Type=Soccer" transform="translate(11.4, 8.6)">
                    <path d="M5,0 C2.23857641,0 0,2.23857641 0,5 C0,7.76142359 2.23857641,10 5,10 C7.76142359,10 10,7.76142359 10,5 C10,2.23857641 7.76142359,0 5,0 Z M3.12217164,1.18629658 L4.62600183,2.08605146 L4.62600183,3.18293953 L3.23030972,4.19696903 L2.20843792,3.84352207 L1.91515338,2.07659411 C2.25983381,1.71300066 2.66811085,1.41029727 3.12217164,1.18629658 Z M0.810681105,5.71967649 L1.97424388,4.5561142 L2.99356079,4.90867805 L3.53492594,6.57482719 L3.0504446,7.36252022 L1.40357196,7.26559114 C1.11150753,6.80293703 0.906251788,6.28000641 0.810681105,5.71967649 Z M4.26494789,9.18666744 L3.67284346,7.78216791 L4.15471506,6.99871778 L5.84030485,6.99871778 L6.29630566,7.78915262 L5.77648544,9.17923069 C5.52473307,9.22570896 5.265203,9.25 5,9.25 C4.74932146,9.25 4.5037117,9.22829723 4.26494789,9.18666744 Z M8.44598389,7.48803806 L6.93375301,7.39322853 L6.46511221,6.58088255 L7.00844288,4.90868425 L8.01479912,4.56063652 L9.17079735,5.82083845 C9.05080891,6.43403339 8.79895973,7.00001097 8.44598389,7.48803806 Z M8.08597851,2.07778835 L7.79154921,3.84425998 L6.77170181,4.19697332 L5.37600183,3.18293929 L5.37600183,2.08583975 L6.87713432,1.18595433 C7.33197021,1.41023397 7.7408843,1.71347809 8.08597851,2.07778835 Z" id="Shape"></path>
                </g>
            </g>
        </g>
    </g>
</svg>