<svg width="24" height="24" viewBox="0 0 24 24" xmlns="http://www.w3.org/2000/svg">
    <g fill="none" fill-rule="evenodd">
        <path d="M0 24h24V0H0z"/>
        <path d="M11.023 7.43 4.28 14.373a.925.925 0 0 0-.28.67c.001.256.086.48.257.67A.86.86 0 0 0 4.93 16h14.14a.86.86 0 0 0 .674-.287.976.976 0 0 0 .256-.67c0-.064-.093-.288-.28-.67L12.978 7.43a1.417 1.417 0 0 0-.465-.335A1.331 1.331 0 0 0 12 7c-.186 0-.357.032-.512.096-.155.064-.31.175-.465.335z" fill="#979797" fill-rule="nonzero"/>
    </g>
</svg>
