<?xml version="1.0" encoding="UTF-8"?>
<svg width="24px" height="24px" viewBox="0 0 24 24" version="1.1" xmlns="http://www.w3.org/2000/svg" xmlns:xlink="http://www.w3.org/1999/xlink">
    <title>Unfollow user</title>
    <g id="Timeline" stroke="none" stroke-width="1" fill="none" fill-rule="evenodd">
        <g id="Home-Page-/-post-/-more-action" transform="translate(-656, -516)" fill="#979797" fill-rule="nonzero">
            <g id="Group-7" transform="translate(640, 380)">
                <g id="Unfollow-user" transform="translate(18.0035, 138.0046)">
                    <path d="M15.4964581,9.99537563 C18.5340242,9.99537563 20.9964581,12.4578094 20.9964581,15.4953756 C20.9964581,18.5329418 18.5340242,20.9953747 15.4964581,20.9953747 C12.4588919,20.9953747 9.99645805,18.5329418 9.99645805,15.4953756 C9.99645805,12.4578094 12.4588919,9.99537563 15.4964581,9.99537563 Z M10.0187187,11.9946842 C9.72201931,12.4579839 9.48248816,12.9614097 9.31007576,13.4950104 L2.25,13.4952965 C1.83578643,13.4952965 1.5,13.8310839 1.5,14.2452974 L1.5,15.1526155 C1.5,15.8082699 1.78599057,16.4313041 2.28316545,16.8587399 C3.54125011,17.9403826 5.43726015,18.4964466 7.99645853,18.4964466 C8.59529752,18.4964466 9.15790212,18.466 9.68459702,18.4054947 C9.93351142,18.9056642 10.2473138,19.3693853 10.6135559,19.7858677 C9.81136703,19.9266666 8.93842113,19.9964466 7.99645853,19.9964466 C5.10696101,19.9964466 2.86814296,19.339843 1.30527592,17.9961624 C0.476654887,17.2837727 0,16.2453749 0,15.1526155 L0,14.2452974 C0,13.0026568 1.00735927,11.9952965 2.25,11.9952965 L10.0187187,11.9946842 Z M13.0895061,12.9616585 L13.0202579,13.0195131 L12.9624023,13.0887613 C12.8442808,13.2592709 12.8442808,13.4868628 12.9624023,13.6573725 L13.0202579,13.7266207 L14.7898102,15.4960661 L13.0228462,17.2628651 L12.9649906,17.3321133 C12.846869,17.502623 12.846869,17.7302148 12.9649906,17.9007244 L13.0228462,17.9699726 L13.0920944,18.0278282 C13.262604,18.1459497 13.490196,18.1459497 13.6607056,18.0278282 L13.7299538,17.9699726 L15.4968109,16.2030659 L17.2658539,17.9722157 L17.3351002,18.0300713 C17.5056098,18.1481929 17.7332017,18.1481929 17.9037113,18.0300713 L17.9729595,17.9722157 L18.0308151,17.9029675 C18.1489366,17.7324578 18.1489366,17.5048659 18.0308151,17.3343563 L17.9729595,17.2651081 L16.2038116,15.4960661 L17.9757271,13.7266674 L18.0335827,13.6574192 C18.1517042,13.4869096 18.1517042,13.2593177 18.0335827,13.0888081 L17.9757271,13.0195608 L17.9064789,12.9617052 C17.7359692,12.8435836 17.5083773,12.8435836 17.3378677,12.9617052 L17.2686195,13.0195608 L15.4968109,14.7890673 L13.7273655,13.0195131 L13.6581173,12.9616585 C13.5119662,12.8604115 13.3238763,12.845947 13.1657429,12.9182663 L13.0895061,12.9616585 Z M7.99645853,0 C10.7578821,0 12.9964581,2.23857617 12.9964581,5 C12.9964581,7.76142383 10.7578821,10 7.99645853,10 C5.2350347,10 2.99645853,7.76142383 2.99645853,5 C2.99645853,2.23857617 5.2350347,0 7.99645853,0 Z M7.99645853,1.5 C6.0634619,1.5 4.49645853,3.06700337 4.49645853,5 C4.49645853,6.93299663 6.0634619,8.5 7.99645853,8.5 C9.92945516,8.5 11.4964581,6.93299663 11.4964581,5 C11.4964581,3.06700337 9.92945516,1.5 7.99645853,1.5 Z" id="Shape"></path>
                </g>
            </g>
        </g>
    </g>
</svg>