<?xml version="1.0" encoding="UTF-8"?>
<svg width="211px" height="194px" viewBox="0 0 211 194" version="1.1" xmlns="http://www.w3.org/2000/svg" xmlns:xlink="http://www.w3.org/1999/xlink">
    <title>Group 135</title>
    <defs>
        <polygon id="path-1" points="0 0 28.9587036 0 28.9587036 28.8928745 0 28.8928745"></polygon>
    </defs>
    <g id="Page-1" stroke="none" stroke-width="1" fill="none" fill-rule="evenodd">
        <g id="Verify-your-email" transform="translate(-578, -250)">
            <g id="Group-4" transform="translate(386, 196)">
                <g id="Group-2" transform="translate(96, 54)">
                    <g id="Group-135" transform="translate(96, 0)">
                        <g id="Group-31" transform="translate(7.8007, 0)">
                            <path d="M66.9108395,6.58003247 L0.929256568,92.0953097 L178.37311,48.0845885 L79.5407442,3.40929102 C75.1048211,1.40380569 69.8676595,2.7184359 66.9108395,6.58003247" id="Fill-1" fill="#E1E1E1"></path>
                            <path d="M75.202758,2.83350926 C72.1405849,2.83350926 69.1685164,4.23250816 67.2014618,6.80160402 L67.2007687,6.80229556 L1.858929,91.4884084 L177.263644,47.9838993 L79.3898535,3.74151003 C78.0348176,3.12879969 76.6090842,2.83350926 75.202758,2.83350926 L75.202758,2.83350926 Z M0,92.7013812 L66.6213262,6.35693951 C69.6987478,2.33836185 75.0731459,0.990537408 79.6920507,3.07693369 L179.482298,48.185831 L0,92.7013812 Z" id="Fill-3" fill="#E0E0E0"></path>
                            <path d="M33.9099286,193.779639 C29.9328463,194.765785 25.9079393,192.349521 24.9188671,188.381426 L0.929533813,92.0953097 L178.988871,47.9317567 L202.978205,144.218565 C203.967277,148.185968 201.544847,152.202471 197.567765,153.188617 L33.9099286,193.779639 Z" id="Fill-5" fill-opacity="0.447793" fill="#E1E1E1"></path>
                            <path d="M168.026874,53.2045926 L106.339819,116.089005 L13.076616,95.1503554 L2.40822104,45.8078095 C1.18002484,40.5126367 4.43488338,35.2133146 9.72194917,33.9021421 L144.601734,0.448572288 C149.949101,-0.877814211 155.362313,2.3724551 156.691704,7.70773761 L168.026874,53.2045926 Z" id="Fill-7" fill="#FFFFFF"></path>
                            <path d="M97.8700475,111.142165 L24.6197888,187.522802 C25.7079762,191.888536 30.1369681,194.546841 34.5118972,193.461113 L196.91104,153.161923 C201.285969,152.076195 203.950989,147.657211 202.862801,143.292169 L202.71101,142.684299 L106.926262,108.985922 C103.744873,107.867 100.20168,108.710686 97.8700475,111.142165" id="Fill-9" fill="#E1E1E1"></path>
                            <polygon id="Fill-11" fill="#E1E1E1" points="75.8093012 46.5762561 23.0391447 59.6713837 21.6979711 54.2932253 74.4688207 41.1980977"></polygon>
                            <polygon id="Fill-13" fill="#E1E1E1" points="143.686479 44.9332104 26.607221 73.9864688 25.0934622 67.9146891 142.17272 38.8614307"></polygon>
                            <polygon id="Fill-15" fill="#E1E1E1" points="147.386247 59.7753232 30.3069887 88.8285816 28.79323 82.7568019 145.872488 53.7035435"></polygon>
                            <polygon id="Fill-17" fill="#E1E1E1" points="148.340247 73.3507991 144.674373 77.010464 46.3888733 102.648173 33.5461829 99.6496271 33.0610038 98.2603099 149.760436 69.3011018 150.26225 71.3135026"></polygon>
                            <polygon id="Fill-19" fill="#E1E1E1" points="123.199861 98.9018577 78.9210319 109.889843 65.3852285 106.801395 131.559497 90.3799282"></polygon>
                            <path d="M95.1982416,113.928138 C95.2028102,113.933247 95.1452818,114.002402 95.0288388,114.133104 C94.8978405,114.276254 94.7245622,114.465738 94.5055385,114.706396 C94.0231319,115.221598 93.3390294,115.952563 92.465707,116.886151 C90.6663858,118.785138 88.0907779,121.5043 84.9142412,124.856918 C78.5244326,131.575294 69.692094,140.851009 59.8637519,151.025735 C50.0340237,161.205994 41.0408828,170.329569 34.4694787,176.8716 C31.1848163,180.143999 28.514252,182.779483 26.655323,184.586495 C25.7362552,185.475824 25.0168039,186.172211 24.5101383,186.663209 C24.2730937,186.886579 24.0866463,187.062923 23.9452513,187.196392 C23.8163322,187.314646 23.7484072,187.373428 23.7433497,187.368863 C23.7393967,187.363746 23.7983113,187.295975 23.9182199,187.16873 C24.0526838,187.028346 24.2301207,186.843012 24.4560755,186.608577 C24.9509582,186.105823 25.6537747,185.392838 26.5506629,184.48138 C28.391571,182.623885 31.0274797,179.963505 34.2781795,176.682116 C40.7996795,170.09306 49.7609372,160.941131 59.5899723,150.762256 C69.3961347,140.580614 78.2742188,131.362989 84.7194764,124.671583 C87.9327482,121.353543 90.538853,118.662734 92.3582745,116.783802 C93.2544696,115.871652 93.9558999,115.156593 94.4500895,114.653147 C94.6808961,114.424245 94.8631848,114.24306 95.0011143,114.106134 C95.1265678,113.984421 95.1931066,113.923565 95.1982416,113.928138" id="Fill-21" fill="#FAFAFA"></path>
                            <path d="M202.710083,142.683746 C202.675384,142.782637 182.248651,135.709498 157.092809,126.886054 C131.927263,118.060536 111.562217,110.828341 111.596829,110.728758 C111.631528,110.629867 132.053409,117.702314 157.218955,126.527833 C182.375491,135.350585 202.744695,142.584855 202.710083,142.683746" id="Fill-23" fill="#FAFAFA"></path>
                            <path d="M170.96263,50.1771634 C170.967128,50.1816346 170.922076,50.2404161 170.828506,50.3496805 C170.719687,50.4741589 170.581064,50.6318315 170.407786,50.8296139 C170.014098,51.2659798 169.463073,51.8752324 168.763029,52.6497647 C167.300561,54.2361727 165.214984,56.4961472 162.646307,59.2810056 C157.457663,64.8583295 150.232654,72.5116764 142.139866,80.8544953 C134.042921,89.2000805 126.608591,96.6528788 121.184982,102.003375 C118.475603,104.651999 116.276356,106.801326 114.733486,108.310281 C113.979379,109.032256 113.386075,109.600015 112.961196,110.005953 C112.768511,110.185064 112.61464,110.328214 112.493345,110.440245 C112.386606,110.53637 112.32977,110.583395 112.324587,110.579498 C112.320067,110.574405 112.368585,110.518389 112.466314,110.412583 C112.579984,110.293637 112.725538,110.141496 112.907134,109.951321 C113.319536,109.532935 113.896206,108.948579 114.629519,108.205166 C116.151595,106.676156 118.321732,104.497093 120.995069,101.8132 C126.368774,96.4149868 133.77122,88.9345265 141.866087,80.5903245 C149.957488,72.2488886 157.211608,64.6273529 162.450156,59.0970542 C165.055568,56.3474647 167.170255,54.1151521 168.654903,52.5494904 C169.377127,51.795013 169.944787,51.2023575 170.351644,50.7777479 C170.536012,50.5903387 170.684338,50.4409646 170.800088,50.3234017 C170.902669,50.2224359 170.957425,50.1726445 170.96263,50.1771634" id="Fill-25" fill="#FAFAFA"></path>
                            <path d="M95.1979977,113.928406 C95.1965722,113.93463 95.1127055,113.920107 94.9512102,113.884839 C94.7703077,113.843346 94.5346493,113.788714 94.2366107,113.72025 C93.5864707,113.561195 92.6687891,113.337134 91.4974282,113.050833 C89.1228232,112.456103 85.6787448,111.625556 81.4174862,110.624888 C72.8970484,108.611795 61.0836308,106.019878 48.0253823,103.197676 C34.9629751,100.374783 23.1537162,97.7406817 14.6464476,95.6598178 C10.391427,94.625264 6.95635908,93.7546068 4.59284383,93.1156177 C3.42910714,92.8002724 2.51697046,92.5526987 1.87168228,92.3777374 C1.57710927,92.2933687 1.34422331,92.2269802 1.16609327,92.1764973 C1.00806351,92.1287806 0.927662408,92.1018102 0.92903101,92.0948948 C0.931127973,92.0886709 1.01499464,92.1038849 1.17648997,92.1384622 C1.35669934,92.179955 1.59235775,92.2345872 1.89108945,92.3037419 C2.54053631,92.4621061 3.45821789,92.6861672 4.62957882,92.9724675 C7.00418388,93.5671976 10.4475691,94.3977452 14.7088277,95.3984132 C23.2292656,97.4115055 35.0440694,100.003422 48.1064765,102.826316 C61.164725,105.648518 72.9725977,108.282619 81.4798664,110.363483 C85.7348869,111.397345 89.1699548,112.268694 91.5341632,112.907683 C92.6978999,113.223028 93.6107297,113.470602 94.2560179,113.646255 C94.5498978,113.729932 94.7827837,113.796321 94.9609138,113.847495 C95.1196366,113.89452 95.2000377,113.922182 95.1979977,113.928406" id="Fill-27" fill="#FAFAFA"></path>
                            <path d="M168.026874,53.2045926 C168.026874,53.2045926 167.957562,52.981223 167.841119,52.5400162 C167.724677,52.0891278 167.554864,51.4349247 167.333761,50.580173 C166.892941,48.8457739 166.247653,46.3050315 165.41661,43.0353989 C163.766308,36.4705464 161.382693,26.987367 158.436963,15.2704919 C158.069613,13.8051045 157.693945,12.3044483 157.309268,10.7705978 C157.117276,10.002981 156.922511,9.22775717 156.72636,8.4442348 C156.630017,8.0514363 156.532981,7.65656316 156.408221,7.27621249 C156.30564,6.88548863 156.151076,6.51205343 155.988194,6.13930978 C155.351917,4.64072816 154.262343,3.32056558 152.927408,2.2894695 C151.568906,1.2950254 149.935239,0.575816874 148.189287,0.391865462 C147.320124,0.261854689 146.430167,0.319944609 145.548527,0.426442795 C144.675898,0.577891514 143.788713,0.820624393 142.895983,1.03915314 C141.111218,1.4831261 139.297341,1.93470607 137.457126,2.39250996 C133.776003,3.30811774 129.98814,4.25069584 126.103242,5.21678653 C110.56157,9.07630845 93.4763351,13.3189472 75.543423,17.7725077 C57.6008074,22.2170781 40.5100276,26.4507268 24.9635035,30.3019502 C21.0772191,31.2632 17.2865842,32.2009373 13.604075,33.1110127 C12.6836209,33.3385316 11.770098,33.5646673 10.8628131,33.7887285 C9.95483513,34.0231628 9.05309515,34.2050395 8.23106316,34.5867733 C7.39932759,34.9394621 6.6202686,35.4041815 5.9368592,35.9740159 C5.23542887,36.523104 4.64073794,37.1876803 4.12991367,37.8958241 C3.60176158,38.5963609 3.23371859,39.390948 2.91142106,40.1848435 C2.62724474,40.9953362 2.4220833,41.8279584 2.34999955,42.6702622 C2.14691745,44.3631685 2.61407559,45.9917609 2.94746293,47.6072139 C3.64057591,50.8325875 4.30596437,53.9279504 4.94016274,56.8822377 C7.46863888,68.6959294 9.51470839,78.256562 10.9307382,84.8753551 C11.628703,88.1754158 12.1707173,90.7396708 12.5408396,92.4899754 C12.7189697,93.3551003 12.8555129,94.0162189 12.9497763,94.4726397 C13.039881,94.9193788 13.076616,95.1503554 13.076616,95.1503554 C13.076616,95.1503554 13.0142358,94.9249112 12.9116551,94.4802467 C12.8090744,94.0265921 12.6600551,93.3675481 12.4659834,92.5065725 C12.0799195,90.7597256 11.5136462,88.2003114 10.7858776,84.9064747 C9.34212326,78.294597 7.25516009,68.7429545 4.67747292,56.9403276 C4.0349572,53.9874234 3.36194449,50.8941352 2.66120727,47.6715277 C2.32781993,46.0761296 1.84125462,44.3915219 2.04641606,42.6426004 C2.11849981,41.7740178 2.32851305,40.9144253 2.6196205,40.0776538 C2.94954227,39.2574795 3.32867507,38.4373051 3.87207565,37.7132558 C4.39814839,36.9815994 5.01086027,36.294202 5.7337771,35.7257507 C6.438673,35.1365529 7.24268405,34.6545449 8.10214414,34.2880251 C8.95328688,33.8924605 9.88691006,33.7022851 10.7831051,33.4692339 C11.6896969,33.2430981 12.6032198,33.0162708 13.5236738,32.7866773 C17.2047969,31.8710696 20.9933524,30.9284915 24.8789437,29.9624008 C40.4226954,26.1021873 57.5120889,21.858857 75.451239,17.4039134 C93.3869235,12.9607261 110.474931,8.72776894 126.018682,4.87723712 C129.904967,3.91598726 133.694216,2.97894153 137.376032,2.06817457 C139.217633,1.61313687 141.03151,1.16501463 142.817662,0.72380786 C143.712471,0.506662208 144.587179,0.266695516 145.500009,0.11040597 C146.410759,0.00114159722 147.33052,-0.0562567758 148.227408,0.0785948235 C150.029502,0.272919436 151.713074,1.01771519 153.111082,2.04604508 C154.485526,3.11102694 155.604903,4.47614005 156.257122,6.0210553 C156.424163,6.40555524 156.582192,6.79074673 156.686852,7.1918438 C156.815078,7.58879158 156.910728,7.98297318 157.005684,8.37508014 C157.200449,9.15860251 157.392441,9.93451786 157.583047,10.7021347 C157.962873,12.2373683 158.335075,13.7387161 158.698266,15.2054865 C161.594092,26.9341179 163.9382,36.4276705 165.560778,42.9994385 C166.361323,46.2766781 166.983739,48.8236445 167.407924,50.5615012 C167.613778,51.4204022 167.770422,52.0773715 167.879241,52.5303346 C167.983208,52.9749991 168.026874,53.2045926 168.026874,53.2045926" id="Fill-29" fill="#E0E0E0"></path>
                        </g>
                        <polygon id="Fill-32" fill="#4D5D77" points="98.3296508 16.706696 91.4789221 21.9133508 91.8123094 31.8577919 85.5361714 26.8862629 82.0719928 29.8467742 68.9021531 13.6258556"></polygon>
                        <g id="Group-134" transform="translate(0, 13.6256)">
                            <path d="M88.9024132,10.4055643 C88.9128099,10.7098449 91.8121015,18.2324895 91.8121015,18.2324895 L85.5359635,13.2609605 L88.9024132,10.4055643 Z" id="Fill-33" fill="#E8505B"></path>
                            <path d="M88.9024132,10.4055643 C88.9128099,10.7098449 91.8121015,18.2324895 91.8121015,18.2324895 L85.5359635,13.2609605 L88.9024132,10.4055643 Z" id="Fill-35" fill="#1A2A44"></path>
                            <polygon id="Fill-37" fill="#E8505B" points="68.9021531 0 88.9026212 10.4057026 91.8123094 18.2326278 91.4789221 8.28749521"></polygon>
                            <polygon id="Fill-39" fill="#1D2D29" points="68.9021531 0 88.9026212 10.4057026 91.8123094 18.2326278 91.4789221 8.28749521"></polygon>
                            <path d="M106.624619,16.9307912 C106.593429,17.0324485 105.790804,16.876159 104.813515,16.6507148 C103.836919,16.4231959 103.04677,16.2115826 103.064098,16.1064676 C103.080039,16.0041186 103.908309,16.0504523 104.899461,16.2807373 C105.891305,16.5096393 106.655116,16.8319 106.624619,16.9307912" id="Fill-41" fill="#263238"></path>
                            <path d="M113.331249,19.8020238 C113.277187,19.8939995 112.533476,19.5537585 111.636588,19.1063278 C110.7397,18.657514 110.021635,18.2667902 110.063222,18.1685905 C110.102729,18.0724656 110.897037,18.3110492 111.807094,18.7667784 C112.717151,19.220433 113.384619,19.7135058 113.331249,19.8020238" id="Fill-43" fill="#263238"></path>
                            <path d="M119.14716,24.2024043 C119.071611,24.2777829 118.437413,23.7618891 117.677068,23.1090691 C116.917416,22.4548659 116.313715,21.9030117 116.377481,21.8172599 C116.439168,21.7342743 117.154461,22.1561178 117.925895,22.8213857 C118.698023,23.4845789 119.22063,24.1297919 119.14716,24.2024043" id="Fill-45" fill="#263238"></path>
                            <path d="M123.581697,29.9764732 C123.487434,30.0276477 123.025128,29.3554643 122.472716,28.5221506 C121.922385,27.6874537 121.486417,26.9979817 121.570283,26.9322848 C121.651378,26.8679709 122.230127,27.4633926 122.790855,28.3133035 C123.35297,29.1618312 123.672495,29.9280649 123.581697,29.9764732" id="Fill-47" fill="#263238"></path>
                            <path d="M126.099777,36.7990651 C125.994423,36.81912 125.758765,36.0390553 125.484985,35.0778055 C125.213285,34.1165556 125.003965,33.328884 125.103773,33.2908489 C125.200116,33.2535054 125.57509,33.9948434 125.851642,34.974765 C126.130274,35.9533035 126.201664,36.7803934 126.099777,36.7990651" id="Fill-49" fill="#263238"></path>
                            <path d="M126.471978,44.0612732 C126.365932,44.0495169 126.372863,43.2341834 126.395043,42.2362816 C126.419995,41.2376882 126.453264,40.4230462 126.560004,40.4161308 C126.663278,40.4092153 126.801207,41.227315 126.776255,42.2452717 C126.752689,43.2625368 126.574559,44.0737211 126.471978,44.0612732" id="Fill-51" fill="#263238"></path>
                            <path d="M124.577007,51.0770141 C124.480665,51.0306805 124.754444,50.2637553 125.09199,49.3246349 C125.431616,48.3862061 125.71302,47.6213555 125.816987,47.6483258 C125.916795,47.6725299 125.796886,48.4947789 125.449637,49.4532626 C125.10516,50.4124378 124.669885,51.1219647 124.577007,51.0770141" id="Fill-53" fill="#263238"></path>
                            <path d="M120.347355,56.9787425 C120.274578,56.8999062 120.816592,56.2913451 121.472277,55.5396339 C122.130735,54.7906889 122.65958,54.1717546 122.748298,54.2326107 C122.833551,54.2900091 122.433625,55.0216655 121.759226,55.7899738 C121.087599,56.5589737 120.415973,57.0548126 120.347355,56.9787425" id="Fill-55" fill="#263238"></path>
                            <path d="M114.230633,60.9112918 C114.190432,60.811709 114.913349,60.433433 115.798454,59.9694052 C116.684946,59.5088351 117.408556,59.1319422 117.46747,59.2211517 C117.524999,59.306212 116.881097,59.8352452 115.975198,60.30688 C115.070686,60.7798979 114.268061,61.0067252 114.230633,60.9112918" id="Fill-57" fill="#263238"></path>
                            <path d="M107.117699,62.4358755 C107.117006,62.3286858 107.927255,62.2374016 108.918407,62.116381 C109.910945,61.9981265 110.720501,61.8971607 110.74476,62.0015842 C110.768326,62.1018585 109.979563,62.3722532 108.964152,62.4932739 C107.949435,62.6170608 107.117699,62.538916 107.117699,62.4358755" id="Fill-59" fill="#263238"></path>
                            <path d="M99.98224,61.0906098 C100.025906,60.9937933 100.800113,61.248974 101.755223,61.5359659 C102.708946,61.8264155 103.49563,62.0428696 103.476916,62.1493678 C103.460974,62.249642 102.625773,62.197776 101.644325,61.8997194 C100.662877,61.604429 99.9385739,61.1846602 99.98224,61.0906098" id="Fill-61" fill="#263238"></path>
                            <path d="M94.9216143,56.0826363 C95.0248881,56.0508252 95.3423338,56.789397 95.914152,57.5915912 C96.4755735,58.4000092 97.0272915,58.9981971 96.9517422,59.079108 C96.8872827,59.1537951 96.1955559,58.6621054 95.600865,57.8080453 C94.9964705,56.9574429 94.8211129,56.1061489 94.9216143,56.0826363" id="Fill-63" fill="#263238"></path>
                            <path d="M97.9969565,50.4189383 C98.0267604,50.5302773 97.2428496,50.7681694 96.4561664,51.3345461 C95.6604727,51.8919327 95.2432187,52.5897033 95.1441035,52.5371458 C95.0484539,52.5087923 95.3527305,51.6485083 96.2336771,51.0261163 C97.1049201,50.4044158 97.9858667,50.3255795 97.9969565,50.4189383" id="Fill-65" fill="#263238"></path>
                            <path d="M104.264361,53.0146587 C104.167325,53.0685994 103.725813,52.3860428 103.005668,51.7256157 C102.296614,51.0638056 101.548745,50.7318632 101.590331,50.6274396 C101.612511,50.5333893 102.479595,50.7207984 103.264892,51.4469224 C104.041179,52.1626732 104.355159,52.9752406 104.264361,53.0146587" id="Fill-67" fill="#263238"></path>
                            <path d="M104.50002,60.0747278 C104.399518,60.0304688 104.656663,59.2621604 104.838259,58.292612 C105.026786,57.3237551 105.070452,56.5153371 105.179964,56.5111878 C105.280465,56.5028892 105.409384,57.3451931 105.21254,58.3638413 C105.021241,59.3831811 104.590124,60.1189867 104.50002,60.0747278" id="Fill-69" fill="#263238"></path>
                            <path d="M99.7539979,65.5039223 C99.693004,65.4147128 100.322351,64.8946697 101.077844,64.2466905 C101.836802,63.6014774 102.432186,63.0503147 102.513281,63.1208525 C102.592296,63.187241 102.107116,63.8711806 101.325978,64.5350654 C100.548999,65.2010249 99.8101401,65.588291 99.7539979,65.5039223" id="Fill-71" fill="#263238"></path>
                            <path d="M93.2711043,68.8613814 C93.2295175,68.7652564 93.9371859,68.3475622 94.8527881,67.9284849 C95.7683904,67.5094076 96.5481425,67.2459283 96.5959673,67.3399787 C96.643099,67.4333375 95.9354306,67.8510317 95.0142835,68.2728751 C94.0931363,68.6940271 93.3126911,68.9575063 93.2711043,68.8613814" id="Fill-73" fill="#263238"></path>
                            <path d="M86.7572979,72.1677351 C86.6983833,72.0806002 87.3596131,71.5861444 88.2336285,71.0640266 C89.113882,70.5543567 89.9012583,70.2867282 89.9414589,70.3717884 C89.9927493,70.476212 89.2871602,70.8932146 88.4200759,71.3952775 C87.5613089,71.9090967 86.8162125,72.25487 86.7572979,72.1677351" id="Fill-75" fill="#263238"></path>
                            <path d="M81.2349895,76.9236398 C81.1566678,76.8551767 81.6383813,76.1809187 82.3647637,75.4693172 C83.090453,74.7563326 83.7752486,74.288847 83.8424806,74.3676833 C83.9110987,74.4492859 83.3462117,75.0384836 82.6316122,75.7404035 C81.9163196,76.4409402 81.3146975,76.9941776 81.2349895,76.9236398" id="Fill-77" fill="#263238"></path>
                            <path d="M77.049003,82.887884 C76.956819,82.8401673 77.2638681,82.0711674 77.797565,81.2067341 C78.3298758,80.3409176 78.8788213,79.7199087 78.962688,79.7807649 C79.0500202,79.8423125 78.6466284,80.5525309 78.1219419,81.405208 C77.5965623,82.2571935 77.1432664,82.9369838 77.049003,82.887884" id="Fill-79" fill="#263238"></path>
                            <path d="M74.3834985,89.6662169 C74.2829971,89.6413213 74.4001332,88.8218385 74.7161927,87.8564393 C75.030866,86.8910402 75.4190092,86.1593838 75.5146588,86.1981104 C75.613774,86.2382201 75.3878192,87.022434 75.0786908,87.9740023 C74.7667899,88.9248789 74.4867723,89.6918042 74.3834985,89.6662169" id="Fill-81" fill="#263238"></path>
                            <path d="M73.430676,96.8814016 C73.3267091,96.882783 73.2359113,96.0591509 73.3066088,95.0467266 C73.3759201,94.0343023 73.5769229,93.2314166 73.6795036,93.2466306 C73.7855499,93.2611531 73.7543598,94.0757951 73.6871278,95.0730054 C73.6171234,96.0695241 73.5374154,96.8807083 73.430676,96.8814016" id="Fill-83" fill="#263238"></path>
                            <path d="M74.3853005,104.09596 C74.2841061,104.125005 74.026268,103.343558 73.8100168,102.350497 C73.5701997,101.360893 73.5577237,100.531729 73.6603044,100.519281 C73.7663507,100.506833 73.94656,101.302112 74.1829116,102.275118 C74.3963904,103.251582 74.486495,104.066915 74.3853005,104.09596" id="Fill-85" fill="#263238"></path>
                            <path d="M77.208419,110.807628 C77.1190074,110.860186 76.6262041,110.194226 76.1736013,109.284843 C75.7189192,108.375459 75.4853402,107.580872 75.5816829,107.542145 C75.6801049,107.501344 76.0668619,108.220552 76.5146129,109.115414 C76.9602846,110.011658 77.300603,110.753688 77.208419,110.807628" id="Fill-87" fill="#263238"></path>
                            <path d="M81.5885465,116.632941 C81.5143834,116.705553 80.8774126,116.174445 80.2203415,115.399913 C79.561191,114.626072 79.1404714,113.912396 79.2243381,113.850849 C79.3102841,113.787918 79.8613089,114.391638 80.5107558,115.154414 C81.1581233,115.917881 81.6647889,116.558945 81.5885465,116.632941" id="Fill-89" fill="#263238"></path>
                            <path d="M87.2154456,121.269485 C87.1606896,121.357311 86.4162863,120.991483 85.5949474,120.39122 C84.7729154,119.793032 84.1969385,119.196919 84.2641705,119.118083 C84.3327887,119.03648 85.0092669,119.494976 85.819516,120.084174 C86.629072,120.675446 87.2722808,121.179583 87.2154456,121.269485" id="Fill-91" fill="#263238"></path>
                            <path d="M93.7975236,124.410075 C93.7663335,124.508966 92.953312,124.34092 92.0092921,123.959878 C91.063886,123.58091 90.3610695,123.140395 90.4068149,123.047728 C90.4539466,122.952294 91.2212227,123.234445 92.1513803,123.607189 C93.0808448,123.982007 93.8300999,124.308417 93.7975236,124.410075" id="Fill-93" fill="#263238"></path>
                            <path d="M97.4677648,125.337369 C97.4490507,125.44041 97.4046915,125.519246 97.3693427,125.512331 C97.3333009,125.506107 97.3194386,125.416897 97.3388458,125.313857 C97.3575598,125.210816 97.4012259,125.13198 97.4372678,125.138896 C97.4726166,125.145119 97.4864788,125.234329 97.4677648,125.337369" id="Fill-95" fill="#000000"></path>
                            <g id="Group" transform="translate(94, 120)">
                                <polygon id="Fill-97" fill="#4D5D77" points="24.0789348 22.8508035 0.00523713513 14.9563443 4.9247981 0.00501676551 28.9984957 7.89947597"></polygon>
                                <path d="M15.0413886,13.6267511 L14.6229837,13.7806392 L14.3521215,13.4244982 C14.2243979,13.2574197 14.0878658,13.0793492 13.9513337,12.8968819 C8.69925088,5.97851288 4.65834024,0.207709369 4.9247981,0.00545644577 C5.19125597,-0.196796477 9.66378432,5.24864364 14.9158671,12.1692111 C15.0523992,12.34948 15.1889314,12.5297489 15.3144528,12.6968274 L14.6273879,12.4945744 C22.5154217,9.63445431 28.8861871,7.59433787 28.9984957,7.89991565 C29.1108044,8.20549344 22.9206138,10.7424486 15.0413886,13.6267511 Z" id="Fill-103" fill="#E4F8F2"></path>
                                <path d="M11.8800091,9.16927258 C12.0275519,9.46825517 9.48629255,11.0071361 6.20952141,12.6053739 C2.92834601,14.2036116 0.151458643,15.2566459 0.00611798758,14.9554649 C-0.141424799,14.6564823 2.39763241,13.1176014 5.67660568,11.5193636 C8.95557895,9.92112584 11.7324663,8.87029 11.8800091,9.16927258" id="Fill-107" fill="#E4F8F2"></path>
                                <path d="M24.5180397,22.9950186 C24.2119435,23.1269227 22.8554307,20.6229436 21.432854,17.426468 C19.9706389,14.1486516 19.0061055,11.3478883 19.4553402,11.3764675 C19.787862,11.3984515 21.1421727,13.7375506 22.540526,16.9450181 C23.9388792,20.1524857 24.8241359,22.8609161 24.5180397,22.9950186" id="Fill-111" fill="#E4F8F2"></path>
                            </g>
                            <g id="Group-131" transform="translate(0, 11.9913)">
                                <mask id="mask-2" fill="white">
                                    <use xlink:href="#path-1"></use>
                                </mask>
                                <g id="Clip-130"></g>
                                <path d="M28.5105785,17.9985667 C26.544217,25.7300584 18.6683742,30.40768 10.9193711,28.4457621 C3.16967495,26.4838443 -1.51784811,18.6257995 0.447820294,10.8943078 C2.41418181,3.16281614 10.2900246,-1.51480548 18.0397208,0.447112398 C25.7887238,2.40833873 30.47694,10.267075 28.5105785,17.9985667" id="Fill-129" fill="#1A2A44" mask="url(#mask-2)"></path>
                            </g>
                            <path d="M19.8472208,18.6103506 C20.0995139,18.7085502 18.4526775,23.5431529 16.1695633,29.4074686 C15.8334035,30.2566879 15.5090267,31.0782453 15.1943534,31.8749071 L15.0196889,32.3161139 L14.5830277,32.148068 C9.88788042,30.3403651 6.46251609,28.8549228 6.54291719,28.6391603 C6.62401141,28.4227062 10.185919,29.5464695 14.9171082,31.2566644 L14.3057825,31.5305169 C14.6121385,30.7303974 14.9288911,29.9060737 15.2553473,29.0533967 C17.5391546,23.189081 19.5949277,18.5128425 19.8472208,18.6103506" id="Fill-132" fill="#FFFFFF"></path>
                        </g>
                    </g>
                </g>
            </g>
        </g>
    </g>
</svg>