<?xml version="1.0" encoding="UTF-8"?>
<svg width="20px" height="23px" viewBox="0 0 20 23" version="1.1" xmlns="http://www.w3.org/2000/svg" xmlns:xlink="http://www.w3.org/1999/xlink">
    <title>Group 7</title>
    <g id="Profile" stroke="none" stroke-width="1" fill="none" fill-rule="evenodd">
        <g id="Profile-/-Talent" transform="translate(-114, -795)">
            <g id="Group-9" transform="translate(104, 611)">
                <g id="Group-15" transform="translate(0, 180)">
                    <g id="Group-7" transform="translate(10, 4.8559)">
                        <rect id="Rectangle" x="0" y="1.07202579" width="20" height="20"></rect>
                        <g id="Group-13" transform="translate(2.2, 0)" fill="#979797" fill-rule="nonzero">
                            <g id="Style=Outlined,-Type=Default" transform="translate(0.9733, 17.2265)">
                                <path d="M2.57906861,0.142541376 C2.75554843,0.332596515 2.75554843,0.640736837 2.57906861,0.830791976 L1.54289928,1.94666662 L4.9709523,1.94666662 C5.22053261,1.94666662 5.42285705,2.16455472 5.42285705,2.43333328 C5.42285705,2.70211183 5.22053261,2.91999993 4.9709523,2.91999993 L1.54289928,2.91999993 L2.57906861,4.0358747 C2.75554843,4.22592966 2.75554843,4.53407013 2.57906861,4.72412509 C2.40258899,4.91418052 2.11645877,4.91418052 1.93997895,4.72412509 L0.13235985,2.77745848 C-0.0441199501,2.58740351 -0.0441199501,2.27926328 0.13235985,2.08920808 L1.93997895,0.142541376 C2.11645877,-0.047513792 2.40258899,-0.047513792 2.57906861,0.142541376 Z M10.0742641,0.142541376 C10.2507446,-0.047513792 10.5368741,-0.047513792 10.7133546,0.142541376 L12.5209736,2.08920808 C12.6974532,2.27926328 12.6974532,2.58740351 12.5209736,2.77745848 L10.7133546,4.72412509 C10.5368741,4.91418052 10.2507446,4.91418052 10.0742641,4.72412509 C9.89778448,4.53407013 9.89778448,4.22592966 10.0742641,4.0358747 L11.1104331,2.91999993 L7.68238082,2.91999993 C7.43280052,2.91999993 7.23047607,2.70211183 7.23047607,2.43333328 C7.23047607,2.16455472 7.43280052,1.94666662 7.68238082,1.94666662 L11.1104331,1.94666662 L10.0742641,0.830791976 C9.89778448,0.640736837 9.89778448,0.332596515 10.0742641,0.142541376 Z" id="Shape"></path>
                            </g>
                            <g id="Style=Filled,-Checkmark=Off" transform="translate(-0, 0)">
                                <path d="M7.30007582,3.72299429 C8.30829297,3.72299429 9.12561474,2.88957367 9.12561474,1.86149714 C9.12561474,0.83342062 8.30829297,0 7.30007582,0 C6.29185867,0 5.47453689,0.83342062 5.47453689,1.86149714 C5.47453689,2.88957367 6.29185867,3.72299429 7.30007582,3.72299429 Z M2.55349789,1.80195012 C1.62601027,1.40050006 0.551193031,1.83865623 0.150728534,2.78145212 C-0.251117181,3.72749951 0.178281481,4.82273991 1.10896658,5.22557408 L3.56224817,6.28744193 C3.86195105,6.41716387 4.0565783,6.71700681 4.0565783,7.04900527 L4.0565783,9.56372151 L2.53206539,14.0784385 C2.20382164,15.0505041 2.71052155,16.1098526 3.66380975,16.4445598 C4.61709622,16.7792669 5.65598384,16.2625915 5.98422779,15.2905243 L7.10828674,11.9617186 C7.17109241,11.7757256 7.42905458,11.7757256 7.49186025,11.9617186 L8.61598033,15.2907073 C8.94422428,16.2627729 9.98311112,16.7794515 10.9363988,16.4447428 C11.8896864,16.1100357 12.3963867,15.0506871 12.0681427,14.0786199 L10.5473826,9.563959 L10.5473826,7.04728997 C10.5473826,6.71529152 10.7420106,6.41544858 11.0417135,6.28572663 L13.4910333,5.22557408 C14.42172,4.82274031 14.8511174,3.72749951 14.4492707,2.78145173 C14.0488059,1.83865662 12.9739893,1.40050006 12.0465013,1.80195012 L10.7434746,2.36594672 C10.4670488,2.48559366 10.2742306,2.71577019 10.179761,2.97067355 C9.7399766,4.15733305 8.6156979,4.99952839 7.30003713,4.99952839 C5.9843868,4.99952839 4.86011623,4.15734685 4.42032333,2.97070196 C4.3258529,2.71580293 4.13303588,2.48563055 3.85661324,2.36598499 L2.55349789,1.80195012 Z" id="Shape"></path>
                            </g>
                        </g>
                    </g>
                </g>
            </g>
        </g>
    </g>
</svg>